<?xml version="1.0" standalone="no"?>
  <!DOCTYPE svg PUBLIC "-//W3C//DTD SVG 1.1//EN" "http://www.w3.org/Graphics/SVG/1.1/DTD/svg11.dtd" >
  <svg>
  <metadata>
  Created by font-carrier
  </metadata>
  <defs>
  <font id="iconfont" horiz-adv-x="1024" vert-adv-y="1024" >
    <font-face
      
      font-family="iconfont"
      
      font-weight="400"
      
      font-stretch="normal"
      
      units-per-em="1024"
      
      ascent="812"
      
      descent="-212"
      
    />
      <missing-glyph />

      
      <glyph glyph-name="x" unicode="&#x78;" horiz-adv-x="100"
        d="M20 20 L50 20 L50 -20 Z" />
      

      
      <glyph glyph-name="share2" unicode="&#xE600;" d="M804.571 246.857V98.857Q804.571 30.857 756.285-17.429T639.999-65.715H164.57Q96.57-65.715 48.284-17.429T-0.002 98.857V574.286Q-0.002 642.286 48.284 690.572T164.57 738.858H310.284Q317.713 738.858 323.141 733.429T328.57 720.572Q328.57 705.143 313.713 702.286 269.713 687.429 237.713 668 231.999 665.714 228.57 665.714H164.57Q126.856 665.714 99.999 638.857T73.142 574.286V98.857Q73.142 61.143 99.999 34.286T164.57 7.429H639.999Q677.713 7.429 704.57 34.286T731.427 98.857V221.143Q731.427 232 741.713 237.714 757.713 245.143 772.57 258.857 781.713 268 792.57 263.428 804.57 258.285 804.57 246.857ZM940 530.286L720.571 310.857Q710.285 300 694.857 300 688 300 680.571 302.857 658.285 312.571 658.285 336.571V446.285H566.856Q382.285 446.285 316.57 371.428 248.57 293.142 274.284 101.142 275.998 87.999 262.855 81.713 258.284 80.57 255.998 80.57 246.855 80.57 241.141 87.999 235.427 95.999 229.141 105.713T206.57 144.856 178.284 201.713 156.284 266.856 146.284 336.57Q146.284 364.57 148.284 388.57T156.284 439.999 172.284 490.285 199.141 536.856 238.284 579.142 292.284 614.285 363.427 641.999 454.57 659.428 566.856 665.714H658.285V775.428Q658.285 799.428 680.571 809.142 688 811.999 694.857 811.999 709.714 811.999 720.571 801.142L940 581.713Q950.857 570.856 950.857 555.999T940 530.285Z"  horiz-adv-x="1024" vert-adv-y="1024"  />

      
      <glyph glyph-name="close" unicode="&#xE601;" d="M810 538L572 300 810 62 750 2 512 240 274 2 214 62 452 300 214 538 274 598 512 360 750 598Z"  horiz-adv-x="1024" vert-adv-y="1024"  />

      
      <glyph glyph-name="document-response" unicode="&#xE602;" d="M87.332 30.59L515.526-59.212 943.668 30.59V-59.212L515.526-149.018 87.332-59.212ZM137.418 393.224C137.418 573.014 283.158 718.754 462.946 718.754H528.056C707.846 718.754 853.584 573.014 853.584 393.224 853.584 327.11 833.76 265.65 799.874 214.316L821.03 2.59 668.294 99.794C625.78 79.418 578.35 67.694 528.058 67.694H462.948C283.158 67.694 137.418 213.434 137.418 393.224ZM202.524 393.224C202.524 249.406 319.132 132.8 462.946 132.8H528.056C671.872 132.8 788.478 249.406 788.478 393.224S671.872 653.648 528.056 653.648H462.946C319.132 653.648 202.524 537.042 202.524 393.224ZM614.156 393.224C614.156 426.096 640.836 452.776 673.706 452.776 706.582 452.776 733.26 426.096 733.26 393.224S706.58 333.672 673.706 333.672C640.836 333.672 614.156 360.352 614.156 393.224ZM435.946 393.224C435.946 426.096 462.626 452.776 495.496 452.776 528.372 452.776 555.052 426.096 555.052 393.224S528.37 333.672 495.496 333.672C462.626 333.672 435.946 360.352 435.946 393.224ZM258.956 393.224C258.956 426.096 285.636 452.776 318.506 452.776 351.382 452.776 378.062 426.096 378.062 393.224S351.382 333.672 318.506 333.672C285.636 333.672 258.956 360.352 258.956 393.224Z"  horiz-adv-x="1024" vert-adv-y="1024"  />

      
      <glyph glyph-name="gel" unicode="&#xE603;" d="M658.944 668.64C596.992 668.64 543.232 635.872 513.024 587.232 482.304 635.872 428.544 668.64 366.592 668.64H44.032L98.816-70.688H412.672C434.176-101.92 470.528-122.4 511.488-122.4S588.288-101.92 610.304-70.688H924.16L979.456 668.64H658.944ZM872.96 15.328C872.96-3.616 857.6-18.976 838.656-18.976H578.56C570.88-48.672 543.744-70.688 512-70.688 479.744-70.688 453.12-48.672 445.44-18.976H151.04L95.744 616.928H452.608C471.552 616.928 486.912 601.568 486.912 582.624V187.36C487.936 174.048 499.2 163.808 512.512 163.808S537.088 174.048 538.112 187.36V187.36 582.624C538.112 601.568 553.472 616.928 572.416 616.928H927.232L872.96 15.328Z"  horiz-adv-x="1024" vert-adv-y="1024"  />

      
      <glyph glyph-name="address" unicode="&#xE604;" d="M938.41 75.007C973.773 32.468 957.373-31.596 945.585-43.896 933.285-56.709 934.31-62.346 875.883-115.648 816.944-168.949 699.579-132.561 646.277-115.648S447.935-5.97 313.656 121.645C178.353 250.798 108.138 411.727 79.438 499.367S68.675 618.782 79.438 648.508C90.201 678.234 109.676 703.347 168.103 736.66 226.017 769.973 247.03 744.86 261.893 736.66 276.756 728.972 341.845 672.083 364.396 618.27S376.184 530.118 358.758 513.717C341.333 497.317 329.032 482.454 314.682 472.203 300.332 462.465 297.257 447.602 299.307 419.927 301.357 391.739 402.322 283.086 422.31 262.586 442.298 242.598 573.501 106.782 619.115 96.019 664.729 85.769 681.129 105.757 686.254 110.882S709.317 140.608 729.305 157.521C749.806 174.434 804.132 169.821 817.97 160.084 831.295 150.859 903.56 117.545 938.41 75.007Z"  horiz-adv-x="1024" vert-adv-y="1024"  />

      
      <glyph glyph-name="draft-box2" unicode="&#xE605;" d="M899.467 30.067H637.8L916.933 309.2C934.666 326.933 934.666 355.733 916.933 373.467L630.333 660.067C612.6 677.8 583.8 677.8 566.066 660.067L117.599 211.6C99.932 193.867 99.866 165.067 117.599 147.333L234.866 30.066H124.533C105.933 30.066 90.866 14.999 90.866-3.601V-39.734C90.866-58.334 105.933-73.401 124.533-73.401H899.533C918.133-73.401 933.2-58.334 933.2-39.734V-3.601C933.133 14.999 918.067 30.066 899.467 30.066V30.066ZM341.667-20.667L145.6 175.333C143.333 177.6 143.333 181.333 145.6 183.6L594 632C596.267 634.267 600 634.267 602.267 632L888.867 345.4C891.134 343.133 891.134 339.467 888.867 337.2L531-20.667H341.667ZM599.867 583.667C588.067 585.067 577.067 576.667 575.534 564.8L534.401 238 211.534 201.6C199.601 200.267 191.001 189.467 192.334 177.533 193.601 166.4 203.001 158.2 213.934 158.2 214.734 158.2 215.534 158.2 216.401 158.333L556.334 196.666C566.334 197.799 574.267 205.599 575.534 215.599L618.801 559.332C620.268 571.265 611.801 582.199 599.868 583.665V583.665Z"  horiz-adv-x="1024" vert-adv-y="1024"  />

      
      <glyph glyph-name="signature" unicode="&#xE606;" d="M341.452 383.802C276.914 361.145 265.336 349.487 242.652 284.932L107.401-24.161C98.002-27.18 89.081-32.088 81.653-39.603 59.858-61.385 57.13-94.936 73.302-119.839L328.313 135.224C324.135 146.604 326.394 159.8 335.546 168.96 348.071 181.476 368.337 181.476 380.883 168.96 393.438 156.44 393.438 136.113 380.883 123.575 371.758 114.422 358.539 112.16 347.2 116.307L92.145-138.642C117.022-154.827 150.572-152.055 172.368-130.26 179.831-122.859 184.786-113.986 187.793-104.587L496.88 30.721C561.431 53.352 573.058 65.006 595.742 129.53L654.806 274.047C598.96 329.87 542.951 385.88 486 442.848L341.453 383.802ZM527.809 525.042C514.847 537.996 493.816 537.996 480.81 525.042 467.856 512.054 467.856 490.969 480.81 478.021L689.974 268.878C702.963 255.928 724.002 255.964 736.938 268.878 749.953 281.867 749.953 302.863 736.938 315.903L527.809 525.042ZM961.713 515.595C908.94 615.381 826.402 696.669 725.966 748.306 694.427 719.397 662.574 688.963 630.703 657.061 596.135 622.542 563.19 587.952 532.12 553.757 610.03 475.926 687.866 398.076 765.777 320.166 799.907 351.263 834.51 384.147 869.029 418.719 901.463 451.19 932.366 483.574 961.712 515.595Z"  horiz-adv-x="1024" vert-adv-y="1024"  />

      
      <glyph glyph-name="unread-mail" unicode="&#xE607;" d="M2.667-5.467C2.667-46.867 36.2-80.4 77.6-80.4H827.067C868.467-80.4 902-46.867 902-5.467V465.066C848.667 465.066 798.4 522.666 798.4 575.333H77.6C36.2 575.333 2.667 541.8 2.667 500.4V-5.467ZM278.467 246.867L107 419.467C92.8 433.667 92.8 456.734 107 471 121.267 485.2 144.267 485.2 158.533 471L432.066 197.133C443.133 186.266 461.333 186.266 472.199 197.133L746.066 471C760.266 485.2 783.333 485.2 797.599 471 811.799 456.8 811.799 433.733 797.599 419.467L625.999 246.867 797.599 75.4C811.799 61.2 811.799 38.133 797.599 23.867 783.399 9.667 760.332 9.667 746.066 23.867L574.666 195.2C574.666 195.2 521.066 140.667 511.399 130.933 496.199 116.133 475.199 106.933 452.399 106.933 429.132 106.933 408.199 116.333 392.999 131.533 383.066 141.266 329.866 195.266 329.866 195.266L158.666 23.933C144.466 9.733 121.399 9.733 107.133 23.933 92.933 38.133 92.933 61.2 107.133 75.466L278.466 246.866ZM1023.333 591.467C1023.333 539.663 981.337 497.667 929.533 497.667S835.733 539.663 835.733 591.467C835.733 643.271 877.729 685.267 929.533 685.267S1023.333 643.271 1023.333 591.467Z"  horiz-adv-x="1024" vert-adv-y="1024"  />

      
      <glyph glyph-name="new-mail" unicode="&#xE608;" d="M590.867 212.333L731.4 253.866 631 357.666ZM966.133 496.667L865.8 600.467 645 372.134 745.333 268.334ZM836.4 50.267C836.4 14.2 808.267-15.066 773.6-15.066H131.6C96.933-15.066 68.8 14.201 68.8 50.267V442.267C68.8 478.334 96.933 507.6 131.6 507.6H728.067L790.867 572.933H110.667C52.867 572.933 6 524.2 6 464.066V28.466C6-31.667 52.867-80.401 110.667-80.401H794.6C852.4-80.401 899.267-31.668 899.267 28.466V376.933L836.467 311.6V50.267ZM1012.8 583.867L950.067 648.734C939.667 659.467 922.267 658.934 911.2 647.467L881.067 616.334 981.467 512.534 1011.6 543.667C1022.6 555.134 1023.2 573.134 1012.8 583.867ZM165.067 392.267H485.6V350.267H165.067V392.267ZM165.067 260H485.6V218H165.067V260Z"  horiz-adv-x="1024" vert-adv-y="1024"  />

      
      <glyph glyph-name="star-mail" unicode="&#xE609;" d="M0 1.333C0-45.8 38.2-84 85.333-84H938.666C985.799-84 1023.999-45.8 1023.999 1.333V577.333C1023.999 624.466 985.799 662.666 938.666 662.666H85.333C38.2 662.666 0 624.466 0 577.333V1.333ZM43.133 418.8C30.266 431.667 37.466 439.2 50.333 452.067 57.466 459.2 76.866 444.934 89.733 432.067L493.666 89.334C503.666 79.467 520.133 79.467 529.933 89.334L932.666 432.067C945.533 444.934 965.666 464.334 975.933 454.067 988.8 441.2 999.066 436.534 979.266 418.8 979.266 418.8 574.199 71.667 565.399 62.867 551.599 49.467 532.666 41.134 511.999 41.134 490.999 41.134 471.999 49.601 458.332 63.401 449.332 72.134 43.132 418.801 43.132 418.801ZM512 564.8L563.333 460.867 678 444.2 595 363.267 614.6 249 512 302.933 409.4 249 429 363.267 346 444.2 460.667 460.867 512 564.8Z"  horiz-adv-x="1024" vert-adv-y="1024"  />

      
      <glyph glyph-name="pifu" unicode="&#xE60A;" d="M275.28 735.456C304.208 735.456 333.136 735.456 362.064 735.456 368.464 731.744 377.808 730.336 383.632 725.92 391.568 719.968 397.264 712.416 403.472 704.672 411.856 694.24 427.664 684.128 440.976 678.688 456.528 672.416 473.04 668.832 492.112 665.376 498.128 664.992 504.144 664.736 510.16 664.352 518.224 663.136 529.744 665.056 536.4 666.4 572.304 673.44 590.288 679.2 613.904 697.504 623.12 704.736 628.048 716.64 637.648 723.552 643.024 726.432 648.464 729.44 653.904 732.384 658.576 734.176 661.904 733.152 665.744 735.456 674.32 735.456 682.832 735.456 691.28 735.456 715.92 735.456 752.528 738.72 768.784 730.4 780.24 724.384 789.008 714.912 797.968 706.4 810.448 694.56 822.928 682.72 835.344 670.88 875.6 632.544 915.92 594.272 956.112 555.936 968.784 542.688 983.44 531.232 996.048 517.92 1006.416 507.232 1017.424 499.232 1023.12 483.744 1023.312 481.248 1023.376 478.752 1023.44 476.256 1026.32 459.36 1018.448 447.072 1010.512 437.28 976.784 405.344 943.056 373.344 909.264 341.472 896.976 328.096 881.616 309.472 859.92 305.568 830.352 300.256 813.584 318.048 799.76 331.168 795.28 335.52 791.504 341.088 785.68 344.224 785.424 343.968 784.976 343.712 784.592 343.52 784.592 229.408 784.592 115.296 784.592 1.12 784.528-31.008 784.4-63.264 784.208-95.392 781.84-106.528 774.416-118.048 766.288-124.128 746-139.104 710.224-135.776 674.32-135.776 606.096-135.776 537.744-135.776 469.392-135.776 423.184-135.776 376.976-135.776 330.704-135.776 305.68-135.776 279.376-137.632 264.4-128.16 256.016-123.04 246.8-113.44 243.088-103.904 238.864-92.896 239.888-77.536 239.888-62.88 239.888-41.248 239.888-19.744 239.888 1.76 239.888 115.744 239.888 229.856 239.888 343.904 239.376 343.904 238.928 343.904 238.416 343.904 223.504 331.104 212.048 315.232 192.016 307.232 174.992 300.384 155.088 307.552 144.464 314.72 137.04 319.84 131.408 326.432 125.008 332.512 109.776 346.784 94.544 361.056 79.312 375.264 72.08 382.304 64.848 389.408 57.68 396.576 48.784 403.872 41.04 412.192 32.848 420.128 22.928 429.6 12.112 436.96 6.16 450.272 3.6 455.904-1.456 466.08 0.4 475.552 4.752 498.016 19.024 509.856 33.552 522.464 42.192 529.888 49.808 538.528 58.384 546.016 106.064 591.392 153.744 636.768 201.424 682.144 210.064 690.336 218.704 698.528 227.344 706.784 239.888 718.688 251.088 733.408 275.28 734.176 275.28 734.624 275.28 735.008 275.28 735.456Z"  horiz-adv-x="1024" vert-adv-y="1024"  />

      
      <glyph glyph-name="ziti" unicode="&#xE60B;" d="M420.536 611.731H603.443V-11.738H420.536V611.731ZM151.547 700.787H872.451V611.732H151.547V700.787ZM329.694-11.738H694.322V-100.804H329.694V-11.738ZM151.547 700.804H240.594V514.332H151.547V700.804ZM783.386 700.804H872.433V514.332H783.386V700.804Z"  horiz-adv-x="1024" vert-adv-y="1024"  />

      
      <glyph glyph-name="feiquanping" unicode="&#xE60C;" d="M430.954 249.999L121.197 249.302C119.306 249.302 117.416 248.108 116.62 246.217S116.321 242.237 117.715 240.844L218.413 140.544 79.704 2.432C77.017-0.255 75.326-3.936 75.326-8.016S77.018-15.777 79.704-18.464L173.935-112.297C176.622-114.984 180.303-116.576 184.383-116.576S192.144-114.884 194.831-112.297L333.64 26.014 437.224-77.172C438.617-78.565 440.707-79.063 442.597-78.267S445.582-75.68 445.682-73.69L445.782 235.271C445.782 239.052 444.389 242.833 441.404 245.719 438.518 248.605 434.737 249.998 430.956 249.998ZM937.033 636.375C937.033 640.455 935.341 644.136 932.655 646.823L838.424 740.656C835.737 743.343 832.056 744.935 827.976 744.935S820.215 743.243 817.528 740.656L678.719 602.444 575.234 705.531C573.841 706.924 571.751 707.322 569.861 706.626 567.97 705.83 566.876 704.039 566.876 702.049L566.776 395.675C566.776 391.894 568.169 388.113 571.055 385.227S577.722 380.849 581.403 380.849L891.16 379.058C893.051 379.058 894.941 380.153 895.737 382.043S896.036 386.023 894.642 387.416L793.944 487.716 932.653 625.828C935.34 628.515 937.031 632.296 937.031 636.375Z"  horiz-adv-x="1024" vert-adv-y="1024"  />

      
      <glyph glyph-name="enlarge2" unicode="&#xE60D;" d="M621.992 411.991C644.418 389.531 680.701 389.531 703.161 411.991 703.161 411.991 909.634 616.484 909.634 616.484S908.303 451.552 908.303 451.552C907.757 428.341 926.223 408.1 949.365 408.612 949.365 408.612 978.856 408.612 978.856 408.612 1002.033 409.192 1021.215 423.05 1021.796 446.227 1021.796 446.227 1022.991 747.351 1022.991 747.351 1022.991 747.795 1021.421 748.068 1021.421 748.477 1021.421 748.477 1023.742 769.537 1023.742 769.537 1023.947 781.211 1021.25 791.621 1013.673 799.131 1006.3 806.64 995.821 811.18 984.25 810.839 984.25 810.839 963.292 810.395 963.292 810.395 962.848 810.395 962.541 810.224 962.097 810.156 962.097 810.156 662.167 811.931 662.167 811.931 638.99 811.419 619.808 792.202 619.227 768.957 619.227 768.957 619.193 739.398 619.193 739.398 622.743 711.955 644.247 695.946 667.389 696.458 667.389 696.458 826.519 695.844 826.519 695.844S622.06 493.229 622.06 493.229C599.566 470.872 599.566 434.52 621.992 411.992 621.992 411.992 621.992 411.992 621.992 411.992ZM403.47 188.111C381.044 210.605 344.727 210.605 322.267 188.111 322.267 188.111 115.76-15.119 115.76-15.119S117.091 146.059 117.091 146.059C117.603 169.304 99.205 189.545 76.063 188.965 76.063 188.965 44.831 188.965 44.831 188.965 21.586 188.385 2.437 174.595 1.925 151.35 1.925 151.35 0.696-147.283 0.696-147.283 0.696-147.658 2.266-147.966 2.266-148.444 2.266-148.444 0.013-169.436 0.013-169.436-0.226-181.11 2.471-191.589 10.014-198.995 17.421-206.538 27.866-211.078 39.369-210.805 39.369-210.805 60.395-210.259 60.395-210.259 60.805-210.259 61.078-210.088 61.556-210.088 61.556-210.088 361.008-211.897 361.008-211.897 384.185-211.283 403.367-192.1 403.948-168.855 403.948-168.855 403.948-139.261 403.948-139.261 400.432-111.886 378.928-97.618 355.786-98.13 355.786-98.13 197.168-97.618 197.168-97.618S403.47 106.738 403.47 106.738C425.861 129.198 425.861 165.618 403.47 188.112 403.47 188.112 403.47 188.112 403.47 188.112Z"  horiz-adv-x="1024" vert-adv-y="1024"  />

      
      <glyph glyph-name="my-rest" unicode="&#xE60E;" d="M1017.699-8.671C997.269 81.038 955.515 142.701 893.055 188.413 877.542 199.771 861.01 209.721 842.547 218.145 835.95 221.006 829.354 223.866 822.759 226.728 822.759 226.83 822.759 226.932 822.759 227.034 830.92 236.18 842.344 242.065 849.932 251.862 867.743 274.859 882.77 297.353 892.169 329.716 902.881 366.6 898.218 416.226 886.263 447.417 860.965 513.408 800.918 570.198 710.816 568.489 706.186 568.183 701.558 567.876 696.933 567.57 686.119 565.629 675.636 564.48 665.917 561.44 628.098 549.609 595.955 528.3 574.355 499.524 556.586 475.858 543.348 449.715 535.954 414.927 525.705 366.714 540.266 315.114 557.516 285.272 563.441 275.027 570.647 266.125 577.604 257.073 583.881 248.899 599.796 231.588 608.909 227.341 608.909 227.239 608.909 227.137 608.909 227.035 601.332 223.766 593.748 220.496 586.165 217.226 569.708 209.698 553.645 199.983 539.497 189.641 485.915 150.469 443.803 96.371 421.943 24.435 417.954 11.312 415.767-1.806 412.784-16.332 407.255-43.276 408.06-76.638 408.06-109.204 408.06-126.969 407.194-143.039 414.559-152.728 422.684-163.419 438.74-162.234 457.384-162.23 489.38-162.23 521.383-162.23 553.38-162.23 660.095-162.23 766.843-162.23 873.559-162.23 904.076-162.23 934.605-162.23 965.121-162.23 978.456-162.235 997.423-164.523 1007.362-160.084 1025.131-152.148 1022.72-135.204 1022.72-109.509 1022.717-74.26 1024.217-37.3 1017.699-8.667ZM585.55 337.098C580.102 353.104 576.045 379.25 580.223 400.488 582.022 409.643 583.448 418.756 586.491 426.82 601.973 467.911 628.972 496.617 668.562 512.641 677.001 516.056 686.446 517.824 696.129 519.793 700.62 520.227 705.11 520.66 709.6 521.094 779.015 521.319 820.851 484.82 841.795 434.623 854.651 403.809 856.193 359.499 843.048 327.346 826.842 287.7 797.329 258.239 755.962 244.776 746.244 241.616 735.911 240.897 724.637 238.924 704.508 235.414 677.795 243.614 665.118 249.001 625.789 265.721 600.042 294.524 585.552 337.097ZM983.878-115.181C805.197-115.181 626.468-115.181 447.792-115.181 447.766-85.995 446.233-54.947 451.223-30.342 470.51 64.722 518.023 124.239 587.895 166.534 608.486 178.999 632.832 187.029 658.728 193.733 720.533 209.738 791.617 193.664 834.409 171.066 909.254 131.543 959.389 68.732 979.819-27.429 985.194-52.729 984.167-84.718 983.877-115.182ZM334.819 38.532C171.409 67.428 47.288 210.137 47.288 381.839 47.288 574.397 203.385 730.494 395.943 730.494 490.364 730.494 576.002 692.943 638.785 631.982L683.432 652.411C611.429 728.887 509.27 776.651 395.942 776.651 177.893 776.651 1.131 599.887 1.131 381.84 1.131 196.19 129.28 40.497 301.938-1.68L334.82 38.533ZM419.706 571.084C419.706 584.161 409.106 594.762 396.028 594.762S372.35 584.162 372.35 571.084V394.995L274.653 297.298C265.407 288.052 265.407 273.06 274.653 263.812S298.891 254.566 308.139 263.812L412.771 368.444C415.523 371.196 417.436 374.462 418.55 377.929 418.582 378.028 418.621 378.123 418.653 378.222 418.838 378.823 418.986 379.431 419.12 380.042 419.155 380.197 419.202 380.348 419.233 380.504 419.361 381.138 419.45 381.776 419.525 382.417 419.541 382.556 419.571 382.691 419.584 382.832 419.663 383.621 419.704 384.412 419.703 385.203 419.703 385.209 419.704 385.213 419.704 385.219V571.082Z"  horiz-adv-x="1024" vert-adv-y="1024"  />

      
      <glyph glyph-name="leave-management" unicode="&#xE60F;" d="M587.737-92.236L510.767-17.114C492.91 0.127 486.137 22.91 492.91 43.845 493.526 46.924 494.757 49.387 496.605 51.85 488.6 51.234 480.596 50.619 472.591 50.619 321.731 50.619 196.117 157.76 167.793 300 163.483 320.319 161.02 341.871 161.02 364.039 161.02 536.45 300.796 676.227 473.208 676.227S785.396 536.451 785.396 364.039C785.396 319.089 776.16 275.986 758.918 237.81 759.534 237.81 760.149 237.81 760.765 237.81 782.932 237.81 802.636 224.263 813.719 202.096L840.812 146.678C878.373 210.717 898.692 290.149 898.692 361.577 898.692 596.795 707.808 787.679 472.59 787.679S46.488 596.795 46.488 361.577C46.488 269.829 75.428 184.856 124.689 115.276 206.585-7.875 358.676-131.642 474.438-236.32 603.746-119.943 596.357-120.558 596.357-120.558 604.978-103.317 589.584-94.696 587.736-92.233ZM672.712 234.115C682.564 250.741 673.328 272.292 656.703 282.143V282.143L511.384 365.885V594.946C511.384 614.034 495.99 630.044 476.286 630.044S441.188 614.65 441.188 594.946V349.876C441.188 336.945 457.197 325.862 467.666 320.32 470.745 316.01 478.749 311.699 483.675 309.237L627.761 221.8C644.387 211.332 662.859 217.49 672.711 234.115ZM978.742 14.905C991.057 26.605 987.363 37.688 970.737 40.15L864.212 55.544C847.586 58.006 828.498 72.17 821.11 86.948L773.697 183.622C770.002 191.011 765.076 194.705 760.15 194.705S750.914 191.01 746.603 183.622L699.19 86.948C691.801 72.17 672.712 58.008 656.088 55.544L549.563 40.15C532.937 37.688 529.244 26.603 541.558 14.905L618.528-60.217C630.228-71.917 637.616-94.7 635.154-110.709L616.681-217.234C614.834-228.934 619.143-235.707 627.764-235.707 630.843-235.707 634.537-234.476 638.847-232.628L734.289-182.752C741.678-179.057 751.53-177.21 760.767-177.21S779.855-179.057 787.245-182.752L882.687-232.628C886.382-235.09 890.692-235.707 893.77-235.707 901.775-235.707 906.701-228.934 904.853-217.234L886.38-111.324C883.301-94.698 890.69-72.532 903.006-60.832L978.743 14.905Z"  horiz-adv-x="1024" vert-adv-y="1024"  />

      
      <glyph glyph-name="my-leave" unicode="&#xE610;" d="M770.062 341.949C770.054 341.949 770.044 341.949 770.034 341.949 759.166 341.949 748.739 340.052 739.071 336.57 728.695 375.161 693.292 403.342 651.406 403.342 651.388 403.342 651.365 403.342 651.343 403.342 639.831 403.342 628.816 401.213 618.669 397.328 606.609 433.1 572.608 458.632 532.747 458.632 532.737 458.632 532.723 458.632 532.709 458.632 523.164 458.632 513.961 457.172 505.308 454.462L505.957 567.852C505.957 618.504 464.742 659.72 414.089 659.72S322.221 618.505 322.221 567.852V291.628C321.636 292.521 320.317 294.84 319.029 297.18 299.724 333.06 273.602 345.437 254.948 349.79 203.945 361.532 154.149 327.689 148.62 323.796 136.64 315.264 131.872 299.741 136.99 285.949L231.177 32.174C232.211 29.426 233.473 27.05 234.997 24.872L394.038-204.9C399.994-213.414 409.752-218.914 420.795-218.914H734.248C747.946-218.914 760.179-210.349 764.85-197.48L859.992 64.591C861.214 67.896 861.925 71.714 861.931 75.695V250.076C861.933 300.727 820.718 341.943 770.065 341.943ZM796.85 81.422L711.432-153.825H437.86L290.763 58.67 207.918 281.923C218.119 285.895 230.162 288.754 240.205 286.403 245.479 285.179 253.392 281.908 260.988 267.829 282.716 227.594 307.908 199.115 322.223 184.652V134.872C322.223 116.902 336.777 102.33 354.765 102.33 372.752 102.33 387.307 116.9 387.307 134.872V567.857C387.307 582.632 399.32 594.646 414.094 594.646 428.869 594.646 440.883 582.633 440.883 567.857V312.349C440.883 294.379 455.437 279.807 473.425 279.807 491.412 279.807 505.967 294.377 505.967 312.349V366.768C505.967 381.543 517.979 393.555 532.754 393.555S559.541 381.542 559.541 366.768L559.551 311.918C559.551 311.775 559.541 311.634 559.541 311.488V257.069C559.541 239.099 574.096 224.527 592.083 224.527S624.625 239.097 624.625 257.069V311.488C624.625 326.248 636.638 338.261 651.414 338.261S678.201 326.248 678.201 311.488V195.658C678.201 177.688 692.756 163.116 710.743 163.116S743.285 177.686 743.285 195.658V250.077C743.285 264.852 755.298 276.864 770.072 276.864 784.847 276.864 796.859 264.851 796.859 250.077V81.417ZM289.396 535.713C275.826 558.18 268.676 584.078 268.676 610.582 268.676 690.773 333.916 756.011 414.089 756.011 494.296 756.011 559.535 690.771 559.535 610.582 559.535 586.415 553.497 562.52 542.121 541.467L599.32 510.482C615.876 541.004 624.614 575.626 624.614 610.58 624.614 726.664 530.171 821.09 414.088 821.09 298.038 821.09 203.595 726.663 203.595 610.58 203.595 572.225 213.986 534.712 233.655 502.093L289.394 535.712Z"  horiz-adv-x="1024" vert-adv-y="1024"  />

      
      <glyph glyph-name="leave-statistics" unicode="&#xE611;" d="M512 797.155C232.108 797.155 0 565.048 0 285.155S232.107-226.845 512-226.845C791.887-226.845 1024 5.262 1024 285.155S791.887 797.155 512 797.155ZM512-188.444C255.282-188.444 38.401 28.438 38.401 285.155S255.283 758.754 512 758.754 985.599 541.872 985.599 285.155 768.717-188.444 512-188.444ZM839.675 114.487H682.663V285.156C682.663 380.725 607.57 455.825 511.994 455.825 416.425 455.825 341.331 380.725 341.331 285.156V114.487H184.319C163.838 114.487 150.182 100.837 150.182 80.355S163.837 46.223 184.319 46.223H839.675C860.156 46.223 873.812 59.873 873.812 80.355S860.157 114.487 839.675 114.487ZM511.995 524.087C532.476 524.087 546.132 551.394 546.132 592.356 546.132 633.313 532.477 660.625 511.995 660.625 491.52 660.625 477.863 633.312 477.863 592.356 477.863 551.393 491.518 524.087 511.995 524.087ZM259.412 401.207C273.062 414.862 266.238 448.995 238.931 476.3S177.493 510.437 163.838 496.781 157.012 448.993 184.319 421.688 245.757 387.556 259.412 401.207ZM853.33 421.687C880.637 448.994 887.462 483.125 873.811 496.78 860.156 510.435 826.023 503.606 798.718 476.299S764.581 414.861 778.237 401.206C791.892 387.557 826.025 394.382 853.33 421.687Z"  horiz-adv-x="1024" vert-adv-y="1024"  />

      
      <glyph glyph-name="user-feedback" unicode="&#xE612;" d="M816.133 505.904V633.789H752.944V505.904H816.133ZM816.133 376.517V441.21H752.944V376.517H816.133ZM973.677 693.736C986.21 693.736 997.088 689.128 1006.305 679.911 1015.522 670.692 1020.13 659.818 1020.13 647.282V364.131C1020.13 351.595 1015.522 340.535 1006.305 330.948 997.088 321.364 986.212 316.571 973.677 316.571H642.962L548.947 222.555V647.282C548.947 659.817 553.555 670.693 562.772 679.911 571.989 689.128 582.865 693.736 595.4 693.736H973.676ZM404.881 103.417V144.488C459.738 175.4 504.473 252.451 504.473 329.52 504.473 453.276 504.473 553.595 355.084 553.595 205.704 553.595 205.704 453.276 205.704 329.52 205.704 252.451 250.449 175.4 305.288 144.488V103.417C136.391 89.593 6.536 6.609 6.536-93.735H703.643C703.643 6.609 573.78 89.593 404.882 103.417V103.417Z"  horiz-adv-x="1024" vert-adv-y="1024"  />

      
      <glyph glyph-name="imei" unicode="&#xE613;" d="M761.824 191.264H705.568V172.512H761.824V191.264ZM551.936 135.008V116.256H608.192V97.504H626.944V172.512H608.192V135.008L551.936 135.008ZM551.936 60H589.44V78.752H551.936V60ZM589.44 78.752H608.192V97.504H589.44V78.752ZM551.936 172.512H533.184V135.008H551.936V172.512ZM448 556H384V236H448V556ZM512 556H480V236H512V556ZM705.568 60H761.824V78.752H705.568V60ZM608.192 191.264H551.936V172.512H608.192V191.264ZM780.576 78.752V172.512H761.824V78.752H780.576ZM800 556H768V236H800V556ZM398.336 97.504H379.584V78.752H398.336V97.504ZM640 556H576V236H640V556ZM704 556H672V236H704V556ZM686.816 78.752H705.568V172.512H686.816V78.752ZM225.984 60H319.744V78.752H244.736V97.504H225.984V60ZM225.984 153.76H244.736V172.512H225.984V153.76ZM263.488 116.256H300.992V135.008H263.488V116.256ZM417.088 135.008V116.256H454.592V135.008H417.088ZM244.736 191.264V172.512H300.992V191.264H244.736ZM256 556H224V236H256V556ZM960 684H64C28.672 684 0 655.328 0 620V-20C0-55.328 28.672-84 64-84H960C995.328-84 1024-55.328 1024-20V620C1024 655.328 995.328 684 960 684ZM960-20H64V620H960V-20ZM192 556H128V44H192V556ZM244.736 97.504H263.488V116.256H244.736V97.504ZM473.344 172.512H454.592V135.008H473.344V172.512ZM398.336 191.264V172.512H454.592V191.264H398.336ZM319.744 135.008V172.512H300.992V135.008H319.744ZM379.584 153.76H398.336V172.512H379.584V153.76ZM352 556H320V236H352V556ZM473.344 116.256H454.592V78.752H473.344V116.256ZM454.592 60V78.752H398.336V60H454.592ZM896 556H832V44H896V556Z"  horiz-adv-x="1024" vert-adv-y="1024"  />

      
      <glyph glyph-name="blocked" unicode="&#xE614;" d="M512-116C282.272-116 96 70.24 96 300S282.272 716 512 716C741.76 716 928 529.76 928 300S741.76-116 512-116ZM512-20C582.752-20 647.968 3.264 700.96 42.112L254.144 488.896C215.232 435.936 192 370.752 192 300 192 123.296 335.264-20 512-20ZM512 620C440.704 620 375.072 596.416 321.888 556.96L768.96 109.856C808.384 163.072 832 228.672 832 300 832 476.736 688.736 620 512 620Z"  horiz-adv-x="1024" vert-adv-y="1024"  />

      
      <glyph glyph-name="mouse" unicode="&#xE615;" d="M734.592-179.104H575.104C469.376-179.104 383.712-93.408 383.712 12.288V299.392H577.12V235.584C577.12 200.352 603.68 171.808 638.944 171.808H670.816C706.08 171.808 734.624 200.384 734.624 235.584V299.392H928V12.288C928-93.408 840.288-179.104 734.592-179.104ZM734.592 363.2C734.592 398.432 706.016 427.008 670.784 427.008V427.008 616.416C670.784 616.416 628.928 618.4 732.608 618.4 836.288 618.4 928 550.624 928 427.008 928 363.552 928 340.672 928 333.312H734.592V363.2ZM641.216 640C641.216 701.664 612.192 736 554.08 736 492.608 736 445.568 691.712 412.992 603.168L406.304 585.024C368.192 481.504 312.32 429.728 238.784 429.728 209.088 429.728 181.376 441.056 155.616 463.648 129.856 486.272 116.992 510.56 116.992 536.576 116.992 549.44 123.008 555.904 135.104 555.904 143.264 555.904 151.68 545.632 160.352 525.12 176.096 487.232 202.4 468.288 239.2 468.288 267.072 468.288 289.856 477.28 307.616 495.328 325.376 513.344 345.568 548 368.16 599.296L382.752 631.648C425.6 727.392 483.328 775.264 555.84 775.264 638.944 775.264 680.48 727.84 680.48 640H679.904L641.216 640ZM702.688 347.264V251.584C702.688 225.152 681.28 203.744 654.848 203.744S607.008 225.152 607.008 251.584V347.264C607.008 373.696 628.416 395.136 654.848 395.136S702.688 373.696 702.688 347.264ZM577.088 618.4C680.736 618.4 640.864 616.416 640.864 616.416V427.008C605.632 427.008 577.088 398.432 577.088 363.2V333.28L383.68 333.28C383.68 340.64 383.68 363.52 383.68 426.976 383.68 550.624 473.408 618.4 577.088 618.4Z"  horiz-adv-x="1024" vert-adv-y="1024"  />

      
      <glyph glyph-name="alert" unicode="&#xE616;" d="M467.552 208.608C456.48 197.344 450.912 183.584 450.912 167.264 450.912 149.632 457.216 134.816 469.792 122.816 481.408 111.744 495.36 106.208 511.68 106.208 528.352 106.208 542.752 112.224 554.752 124.32S572.736 150.816 572.736 167.52C572.736 183.648 566.912 197.696 555.296 209.696 543.68 221.888 529.664 227.968 513.344 227.968 495.2 228 479.936 221.536 467.552 208.608V208.608ZM460.512 466.784C450.944 452.352 446.208 434.432 446.208 413.056 446.208 395.616 449.152 376.384 455.04 355.392S468.96 314.72 479.072 296.32C492.768 271.392 503.392 258.912 510.88 258.912 518.56 258.912 528.704 268.672 541.248 288.16 552.32 305.408 561.152 325.024 567.808 347.072S577.792 389.696 577.792 408.832C577.792 437.696 569.984 460.032 554.432 475.776 542.816 487.776 528.672 493.792 512 493.792 489.504 493.792 472.32 484.768 460.512 466.784V466.784Z"  horiz-adv-x="1024" vert-adv-y="1024"  />

      
      <glyph glyph-name="tag" unicode="&#xE617;" d="M876.64 296.416L485.44 684.928H128.928L128.096 328.864 514.592-65.664C540-91.072 580.864-91.424 605.888-66.4L877.376 205.12C902.368 230.112 902.048 271.008 876.64 296.416ZM223.424 523.872C223.424 559.2 252.096 587.872 287.424 587.872S351.424 559.2 351.424 523.872C351.424 488.512 322.752 459.872 287.424 459.872S223.424 488.512 223.424 523.872ZM571.616 77.536L322.72 326.432 345.344 349.056 594.24 100.16 571.616 77.536ZM639.488 145.408L390.592 394.304 413.248 416.928 662.112 168.032 639.488 145.408ZM707.36 213.312L458.496 462.208 481.12 484.832 729.984 235.936 707.36 213.312Z"  horiz-adv-x="1024" vert-adv-y="1024"  />

      
      <glyph glyph-name="wallet" unicode="&#xE618;" d="M576 108C540.672 108 512 136.672 512 172V236C512 271.36 540.672 300 576 300H960V108H576ZM624 249.344C597.504 249.344 576 227.84 576 201.344 576 174.816 597.504 153.344 624 153.344 650.528 153.344 672 174.816 672 201.344 672 227.84 650.528 249.344 624 249.344ZM480 236V172C480 119.008 523.008 76 576 76H896V-52C896-104.992 853.024-148 800-148H128C75.008-148 32-104.992 32-52V556C32 609.024 75.008 652 128 652H436.224L361.056 620.672H112.032C85.536 620.672 64.032 599.168 64.032 572.672 64.032 546.144 85.536 524.672 112.032 524.672H896V332H576C523.008 332 480 289.024 480 236ZM160.032 460H96.032V396H128.032V428H160.032V460ZM160.032 364H96.032V300H129.344L128.032 332 160.032 331.328 160.032 364ZM160.032 268H96.032V204H128.704L128.032 236H160.032V268ZM160.032 172H96.032V108H128.704L128.032 140 160.032 139.328V172ZM160.032 76H96.032V12H128.032V44H160.032V76ZM160.032-20H96.032V-84H128.704L128.032-52.672H160.032V-20ZM288.032 557.984L664.032 716 736.032 557.984H288.032ZM724.672 652H800C828.032 652 852.992 639.808 870.56 620.672H739.968L724.672 652Z"  horiz-adv-x="1024" vert-adv-y="1024"  />

      
      <glyph glyph-name="box" unicode="&#xE619;" d="M55.52 241.376L441.248 46.784 510.112 241.376 124.416 425.632 55.52 241.376ZM518.752 241.376L584.192 48.512 983.68 243.104 906.176 425.632 518.752 241.376ZM-7.904 581.216L124.704 426.24 510.4 622.528 384.704 782.688-7.904 581.216ZM1031.904 577.792L647.872 782.688 516.992 622.528 906.176 426.24 1031.904 577.792ZM101.6 192.704L100.288 5.856 507.104-182.72V168.64L448.992 17.088 101.6 192.704ZM521.312 168.64V-182.688L926.88 5.888V191.456L575.2 16.736 521.312 168.64Z"  horiz-adv-x="1024" vert-adv-y="1024"  />

      
      <glyph glyph-name="popout" unicode="&#xE61A;" d="M502.208 378.688L587.52 293.408 748.032 453.952 830.912 371.072 831.04 618.56 581.92 620.032 662.752 539.232 502.208 378.688ZM829.632 269.76L768.192 332.064 769.312 43.84 256.832 43.552 257.344 554.688 544 555.968 480 619.968H256C220.672 619.968 192 591.296 192 555.968V43.968C192 8.64 220.672-20.032 256-20.032H768C803.328-20.032 832 8.64 832 43.968L829.632 269.76Z"  horiz-adv-x="1024" vert-adv-y="1024"  />

      
      <glyph glyph-name="media-play" unicode="&#xE61B;" d="M443.563 25.525C556.246 135.349 725.334 300 725.334 300S556.246 464.651 443.563 574.475C428.075 589.366 407.168 598.667 384 598.667 336.896 598.667 298.667 560.438 298.667 513.334V86.667C298.667 39.563 336.896 1.334 384 1.334 407.168 1.334 428.075 10.635 443.563 25.526Z"  horiz-adv-x="1024" vert-adv-y="1024"  />

      
      <glyph glyph-name="trash" unicode="&#xE61C;" d="M768 513.333H725.333V556C725.333 603.104 687.104 641.333 640 641.333H341.333C294.229 641.333 256 603.104 256 556V513.333H213.333C189.781 513.333 170.666 494.218 170.666 470.666S189.781 427.999 213.333 427.999V86.666C213.333-7.457 289.877-84.001 384-84.001H597.333C691.456-84.001 768-7.457 768 86.666V427.999C791.552 427.999 810.667 447.114 810.667 470.666S791.552 513.333 768 513.333ZM341.333 556H640V513.333H341.333V556ZM682.667 86.667C682.667 39.563 644.438 1.334 597.334 1.334H384.001C336.897 1.334 298.668 39.563 298.668 86.667V428H682.668V86.667ZM362.667 364C350.934 364 341.334 354.4 341.334 342.667V86.667C341.334 74.934 350.934 65.334 362.667 65.334S384 74.934 384 86.667V342.667C384 354.4 374.4 364 362.667 364ZM448 364C436.267 364 426.667 354.4 426.667 342.667V86.667C426.667 74.934 436.267 65.334 448 65.334S469.333 74.934 469.333 86.667V342.667C469.333 354.4 459.733 364 448 364ZM533.333 364C521.6 364 512 354.4 512 342.667V86.667C512 74.934 521.6 65.334 533.333 65.334S554.666 74.934 554.666 86.667V342.667C554.666 354.4 545.066 364 533.333 364ZM618.667 364C606.934 364 597.334 354.4 597.334 342.667V86.667C597.334 74.934 606.934 65.334 618.667 65.334S640 74.934 640 86.667V342.667C640 354.4 630.4 364 618.667 364Z"  horiz-adv-x="1024" vert-adv-y="1024"  />

      
      <glyph glyph-name="eject-outline" unicode="&#xE61D;" d="M682.667 447.157V513.333C682.667 560.48 644.438 598.666 597.334 598.666H170.667V171.999C170.667 124.895 208.896 86.666 256 86.666H301.483C339.584-36.513 457.046-126.667 592-126.667 756.651-126.667 893.312 2.016 893.312 166.666 893.355 301.535 805.077 411.573 682.667 447.157ZM341.333 367.712V229.344C341.333 205.792 322.218 186.677 298.666 186.677S255.999 205.792 255.999 229.344V513.333H539.988C563.54 513.333 582.655 494.218 582.655 470.666S563.54 427.999 539.988 427.999H401.62L606.463 223.242C623.188 206.559 623.188 179.509 606.506 162.869 598.442 154.848 587.775 150.41 576.298 150.41 564.863 150.41 554.154 154.847 546.133 162.826L341.333 367.711ZM597.333-42.656C479.701-42.656 384 53.771 384 171.36 384 201.44 383.829 229.856 392.96 255.797L515.968 132.746C532.608 116.106 554.411 107.829 576.299 107.829S619.904 116.106 636.63 132.746C669.953 166.026 669.953 220.17 636.63 253.493L527.105 363.018C549.164 372.661 572.545 379.999 597.334 379.999 714.966 379.999 810.667 286.9 810.667 169.311 810.667 51.679 714.966-42.657 597.334-42.657Z"  horiz-adv-x="1024" vert-adv-y="1024"  />

      
      <glyph glyph-name="edit2" unicode="&#xE61E;" d="M919.936 585.099L797.099 707.936C784.598 720.437 768.214 726.667 751.83 726.667 735.403 726.667 719.062 720.438 706.561 707.936L554.668 556H170.668C147.116 556 128.001 536.928 128.001 513.333V-41.334C128.001-64.929 147.116-84.001 170.668-84.001H725.335C748.887-84.001 768.002-64.929 768.002-41.334V342.666L919.938 494.602C932.439 507.103 938.669 523.487 938.669 539.871S932.44 572.596 919.938 585.098ZM490.667 185.995L397.995 278.667 666.496 547.168 759.168 454.496 490.667 185.995ZM381.397 243.125L456.32 169.397 384 172 381.397 243.125ZM682.667 1.333H213.334V470.666H469.334L333.654 334.986C321.153 322.485 313.259 300.341 306.817 279.989 299.99 258.656 298.668 234.933 298.668 217.269V86.666H429.271C446.935 86.666 476.546 90.933 496.3 99.039 516.097 107.146 534.529 113.844 546.988 126.346L682.668 257.333V1.333ZM789.333 484.661L696.661 577.333 751.829 632.501 844.458 539.829 789.333 484.661Z"  horiz-adv-x="1024" vert-adv-y="1024"  />

      
      <glyph glyph-name="document-text" unicode="&#xE61F;" d="M725.333-84H298.666C228.095-84 170.666-26.571 170.666 44V556C170.666 626.571 228.095 684 298.666 684H725.333C795.904 684 853.333 626.571 853.333 556V44C853.333-26.571 795.904-84 725.333-84ZM298.667 598.667C275.158 598.667 256 579.51 256 556V44C256 20.491 275.157 1.333 298.667 1.333H725.334C748.843 1.333 768.001 20.49 768.001 44V556C768.001 579.509 748.844 598.667 725.334 598.667H298.667ZM682.667 342.667H341.334C329.558 342.667 320.001 352.224 320.001 364S329.558 385.333 341.334 385.333H682.667C694.443 385.333 704 375.776 704 364S694.443 342.667 682.667 342.667ZM682.667 470.667H341.334C329.558 470.667 320.001 480.224 320.001 492S329.558 513.333 341.334 513.333H682.667C694.443 513.333 704 503.776 704 492S694.443 470.667 682.667 470.667ZM682.667 214.667H341.334C329.558 214.667 320.001 224.224 320.001 236S329.558 257.333 341.334 257.333H682.667C694.443 257.333 704 247.776 704 236S694.443 214.667 682.667 214.667ZM682.667 86.667H341.334C329.558 86.667 320.001 96.224 320.001 108S329.558 129.333 341.334 129.333H682.667C694.443 129.333 704 119.776 704 108S694.443 86.667 682.667 86.667Z"  horiz-adv-x="1024" vert-adv-y="1024"  />

      
      <glyph glyph-name="clipboard22" unicode="&#xE620;" d="M725.333 684H298.666C228.095 684 170.666 626.571 170.666 556V44C170.666-26.571 228.095-84 298.666-84H725.333C795.904-84 853.333-26.571 853.333 44V556C853.333 626.571 795.904 684 725.333 684ZM384 598.667H640V556C640 532.491 620.843 513.333 597.333 513.333H426.666C403.157 513.333 383.999 532.49 383.999 556V598.667ZM768 44C768 20.491 748.843 1.333 725.333 1.333H298.666C275.157 1.333 255.999 20.49 255.999 44V556C255.999 579.509 275.156 598.667 298.666 598.667H341.333C341.333 587.488 341.333 573.024 341.333 556 341.333 509.067 379.733 470.667 426.666 470.667H597.333C644.266 470.667 682.666 509.067 682.666 556 682.666 573.024 682.666 587.488 682.666 598.667H725.333C748.842 598.667 768 579.51 768 556V44ZM682.667 86.667H341.334C329.558 86.667 320.001 96.224 320.001 108S329.558 129.333 341.334 129.333H682.667C694.443 129.333 704 119.776 704 108S694.443 86.667 682.667 86.667ZM682.667 214.667H341.334C329.558 214.667 320.001 224.224 320.001 236S329.558 257.333 341.334 257.333H682.667C694.443 257.333 704 247.776 704 236S694.443 214.667 682.667 214.667ZM682.667 342.667H341.334C329.558 342.667 320.001 352.224 320.001 364S329.558 385.333 341.334 385.333H682.667C694.443 385.333 704 375.776 704 364S694.443 342.667 682.667 342.667Z"  horiz-adv-x="1024" vert-adv-y="1024"  />

      
      <glyph glyph-name="archive" unicode="&#xE621;" d="M896 342.667V641.334H768V769.334H85.333V342.667H42.666V257.334H85.333V-211.999H938.666V257.334H981.333V342.667H896ZM810.667 556V342.667H298.667V556H810.667ZM170.667 684H682.667V641.333H213.334V342.666H170.667V683.999ZM853.333-126.667H170.666V257.333H853.333V-126.667ZM768 214.667H256V-84H768V214.667ZM725.333-41.333H298.666V172H725.333V-41.333ZM682.667 129.333H341.334V86.666H682.667V129.333ZM554.667 44H341.334V1.333H554.667V44Z"  horiz-adv-x="1024" vert-adv-y="1024"  />

      
      <glyph glyph-name="file-add" unicode="&#xE622;" d="M341.333 513.333V428H597.333V513.333H341.333ZM341.333 342.667H725.333V385.334H341.333V342.667ZM725.333 300H384V257.333H725.333V300ZM725.333 172V214.667H426.666V172H725.333ZM341.333 214.667H213.333V86.667H85.333V-41.333H213.333V-169.333H341.333V-41.333H469.333V86.667H341.333V214.667ZM170.667 726.667V300H256V641.333H810.667V-84H527.232L484.565-169.333H896V726.667H170.667Z"  horiz-adv-x="1024" vert-adv-y="1024"  />

      
      <glyph glyph-name="align-justify2" unicode="&#xE623;" d="M128 726.667V-169.333H853.333V726.667H128ZM768-84H213.333V641.333H768V-84ZM682.667 513.333H298.667V428H682.667V513.333ZM682.667 385.333H298.667V342.666H682.667V385.333ZM682.667 300H298.667V257.333H682.667V300ZM682.667 214.667H298.667V172H682.667V214.667ZM682.667 129.333H298.667V86.666H682.667V129.333Z"  horiz-adv-x="1024" vert-adv-y="1024"  />

      
      <glyph glyph-name="folder-add" unicode="&#xE624;" d="M597.333 684V726.667C597.333 773.771 559.104 812 512 812H341.333C294.229 812 256 773.771 256 726.667V684H85.333V556H42.666V257.333H127.999V470.666H895.999V-41.334H426.666V-126.667H981.333V684H597.333ZM896 556H170.667V598.667H341.334V726.667H512.001V598.667H896.001V556ZM256 214.667H128V86.667H0V-41.333H128V-169.333H256V-41.333H384V86.667H256Z"  horiz-adv-x="1024" vert-adv-y="1024"  />

      
      <glyph glyph-name="search2" unicode="&#xE625;" d="M33.835-91.168L94.166-151.499 281.259 35.594 222.507 97.503 33.835-91.169ZM602.667 769.333C393.6 769.333 224 599.776 224 390.666 224 308.789 250.325 233.226 294.485 171.231L365.738 96.138C430.634 43.786 512.81 11.957 602.666 11.957 811.818 11.957 981.333 181.514 981.333 390.624S811.818 769.333 602.666 769.333ZM602.667 97.333C440.918 97.333 309.334 228.917 309.334 390.666S440.918 683.999 602.667 683.999 896 552.415 896 390.666 764.416 97.333 602.667 97.333Z"  horiz-adv-x="1024" vert-adv-y="1024"  />

      
      <glyph glyph-name="comment2" unicode="&#xE626;" d="M853.333 769.333H128C57.429 769.333 0 711.904 0 641.333V129.333C0 58.762 85.333 44 128 44V-212L512 44H853.333C923.904 44 981.333 101.429 981.333 172V641.333C981.333 711.904 923.904 769.333 853.333 769.333ZM896 172C896 148.491 876.843 129.333 853.333 129.333H469.333L213.333-84V129.333H128C104.491 129.333 85.333 148.49 85.333 172V641.333C85.333 664.842 104.49 684 128 684H853.333C876.842 684 896 664.843 896 641.333V172ZM170.667 556H682.667V470.667H170.667ZM170.667 428H810.667V385.333H170.667ZM170.667 342.667H810.667V300H170.667ZM170.667 257.333H512V214.666H170.667Z"  horiz-adv-x="1024" vert-adv-y="1024"  />

      
      <glyph glyph-name="calendar2" unicode="&#xE627;" d="M853.333 641.333V812H597.333V641.333H426.666V812H170.666V641.333H-0.001V-169.334H1023.999V641.333H853.332ZM682.667 726.667H768V556H682.667V726.667ZM256 726.667H341.333V556H256V726.667ZM938.667-84H85.334V385.333H938.667V-84ZM938.667 428H85.334V556H170.667V470.667H426.667V556H597.334V470.667H853.334V556H938.667V428ZM213.376 257.376H298.624V172.043H213.376ZM341.376 257.376H426.624V172.043H341.376ZM469.248 257.376H554.496V172.043H469.248ZM597.248 257.376H682.496V172.043H597.248ZM725.376 257.376H810.624V172.043H725.376ZM213.376 129.419H298.624V44.086H213.376ZM341.376 129.419H426.624V44.086H341.376ZM469.248 129.419H554.496V44.086H469.248Z"  horiz-adv-x="1024" vert-adv-y="1024"  />

      
      <glyph glyph-name="book2222" unicode="&#xE628;" d="M424.363 412.512C352.128 468.363 264.15 527.541 125.696 538.763L424.363 412.512ZM424.363 284.512C352.128 340.363 264.15 399.541 125.696 410.763L424.363 284.512ZM296.32 238.091C248.747 260.406 193.237 277.302 125.696 282.763L296.32 238.091ZM556.971 412.512L855.638 538.763C717.185 527.542 629.206 468.32 556.971 412.512ZM556.971 284.512L855.638 410.763C717.185 399.542 629.206 340.32 556.971 284.512ZM855.637 282.763C788.096 277.302 732.586 260.448 685.013 238.091L855.637 282.763ZM940.971 796.512C754.091 796.512 583.04 709.259 496.598 640.181H484.779C398.294 709.258 227.243 796.512 40.363 796.512H0V-14.155H40.363C178.432-14.155 331.478-67.318 399.531-118.646 419.755-133.963 438.23-149.963 454.486-166.262L488.662-197.622H492.673L526.849-166.262C543.105-149.963 561.58-133.963 581.804-118.646 649.857-67.318 802.903-14.155 940.972-14.155H981.335V796.512H940.972ZM469.333-63.563C469.333-59.211 458.922-54.816 453.29-50.55 381.909 3.253 213.333 60.213 85.333 69.77V709.429C256 696.373 395.221 613.472 455.722 553.184L467.285 540.512H469.333V-63.563ZM896 69.771C768 60.214 599.424 3.254 528.043-50.549 522.411-54.816 512-59.253 512-63.562V540.513H514.091L525.654 553.185C586.113 613.473 725.334 696.374 896.001 709.43V69.771Z"  horiz-adv-x="1024" vert-adv-y="1024"  />

      
      <glyph glyph-name="users" unicode="&#xE629;" d="M640 199.179C640 199.179 376.235 199.179 277.333-31.648 277.333-31.648 442.496-97.568 640-97.568S1002.667-31.648 1002.667-31.648C903.766 199.179 640 199.179 640 199.179ZM640 232.075C738.901 232.075 804.821 330.976 804.821 495.883S640 660.747 640 660.747 475.179 660.747 475.179 495.883 541.099 232.075 640 232.075ZM320 344.587C352.512 344.587 380.416 358.07 402.56 382.347 394.368 415.499 389.845 453.387 389.845 495.883 389.845 559.243 414.208 598.112 444.202 622.091 411.519 697.398 319.999 697.568 319.999 697.568S184.234 697.568 184.234 561.803C184.234 426.038 238.549 344.587 319.999 344.587ZM448 238.176L443.392 291.851C376.917 317.28 320 317.451 320 317.451S102.784 317.451 21.333 127.371C21.333 127.371 126.336 85.515 262.186 75.318 380.501 199.179 447.999 238.177 447.999 238.177Z"  horiz-adv-x="1024" vert-adv-y="1024"  />

      
      <glyph glyph-name="newspaper22" unicode="&#xE62A;" d="M256 129.333H768V385.333H256V129.333ZM298.667 342.667H725.334V172H298.667V342.667ZM256 470.667H768V428H256ZM256 86.667H469.333V44H256ZM256 1.333H384V-41.334H256ZM428.16-1.184H470.827V-43.851H428.16ZM554.667 86.667H768V44H554.667ZM554.667 1.333H768V-41.334H554.667ZM853.333 641.333V681.482C853.333 730.933 810.752 769.333 705.493 769.333H193.493C122.922 769.333 85.333 709.429 85.333 638.816V-86.517C85.333-157.088 122.922-212 193.493-212H790.826C861.397-212 853.333-212 938.666-212V641.333H853.333ZM853.333-126.667H193.493C169.984-126.667 170.666-109.984 170.666-86.518V638.815C170.666 662.324 169.983 683.999 193.493 683.999H768V641.332H256V555.999H853.333V-126.668Z"  horiz-adv-x="1024" vert-adv-y="1024"  />

      
      <glyph glyph-name="uniE689" unicode="&#xE62B;" d="M341.333 769.333V598.666H42.666V-41.334H304.511L376.404-212.001H845.737L938.665-126.668V769.332H341.332ZM128 44V396L268.587 44H128ZM320 86.667L149.333 513.334H320V86.667ZM853.333-84L803.029-126.667H426.666V684H853.333V-84ZM469.333 598.667H682.666V556H469.333ZM469.333 342.667H682.666V300H469.333ZM469.333 257.333H682.666V214.666H469.333ZM469.333 172H682.666V129.333H469.333ZM469.333 86.667H682.666V44H469.333ZM469.333 1.333H682.666V-41.334H469.333ZM725.419 598.709H810.667V555.957H725.419ZM725.419 513.333H768.043V470.581H725.419ZM639.915 513.333H682.539V470.581H639.915ZM597.419 513.333H469.334V470.666 470.581H597.419ZM768.043 342.667H810.539V299.915H768.043ZM768.043 257.376H810.539V214.624H768.043ZM768.043 172H810.539V129.248H768.043ZM768.043 86.709H810.539V43.957H768.043Z"  horiz-adv-x="1024" vert-adv-y="1024"  />

      
      <glyph glyph-name="upload2" unicode="&#xE62C;" d="M512 709.498L245.76 459.642H414.72V197.498H609.28V459.642H778.291L512 709.498ZM990.208 118.547L827.187 228.217H726.681L900.761 94.687H719.257C714.035 94.687 709.375 92.025 706.969 87.877L665.19-26.555 358.809-26.555 316.979 87.877C314.675 92.024 309.913 94.687 304.691 94.687H123.238L297.369 228.217H196.812L33.842 118.547C9.573 104.057-4.916 70.624 1.586 44.358L30.309-113.031C36.811-139.348 65.688-160.903 94.36-160.903H929.586C958.36-160.903 987.186-139.348 993.688-113.031L1022.411 44.358C1029.016 70.675 1014.475 104.057 990.206 118.547Z"  horiz-adv-x="1024" vert-adv-y="1024"  />

      
      <glyph glyph-name="link" unicode="&#xE62D;" d="M402.381 59.667L360.909 18.502C324.967-17.082 266.547-17.133 230.656 18.502 213.402 35.654 203.93 58.336 203.93 82.553S213.453 129.503 230.656 146.655L383.232 298.053C414.822 329.439 474.317 375.57 517.683 332.562 537.6 312.799 569.753 312.952 589.465 332.818 609.228 352.684 609.126 384.837 589.209 404.6 515.532 477.714 406.579 464.197 311.705 370.091L159.129 218.693C122.572 182.341 102.399 134.008 102.399 82.552 102.399 31.147 122.572-17.186 159.18-53.538 196.863-90.965 246.322-109.602 295.782-109.602S394.803-90.965 432.486-53.538L473.958-12.322C493.875 7.441 493.977 39.595 474.214 59.409 454.451 79.275 422.297 79.377 402.38 59.665ZM864.819 647.699C785.664 726.24 675.021 730.489 601.702 657.785L550.041 606.534C530.124 586.771 529.971 554.668 549.734 534.752 569.548 514.835 601.651 514.733 621.516 534.496L673.177 585.747C711.116 623.43 760.831 607.814 793.292 575.661 810.546 558.56 820.018 535.776 820.018 511.61 820.018 487.392 810.495 464.66 793.292 447.559L630.476 286.074C556.082 212.244 521.113 246.855 506.214 261.652 486.297 281.415 454.195 281.262 434.483 261.396 414.72 241.479 414.822 209.326 434.739 189.614 468.889 155.72 507.955 138.926 548.813 138.926 598.887 138.926 651.776 164.116 702.055 214.036L864.82 375.521C901.428 411.822 921.601 460.155 921.601 511.559S901.428 611.348 864.82 647.7Z"  horiz-adv-x="1024" vert-adv-y="1024"  />

      
      <glyph glyph-name="flag-group" unicode="&#xE62E;" d="M946.483 572.384C362.393 338.554 598.989 967.904 145.971 636.589L51.2 602.592 238.899-135.2H342.272L250.368 226.17C654.541 565.012 490.906-143.033 969.011 551.648 980.121 567.776 965.273 579.91 946.483 572.384Z"  horiz-adv-x="1024" vert-adv-y="1024"  />

      
      <glyph glyph-name="clipboard" unicode="&#xE62F;" d="M798.72 709.6L737.28 556H286.72L225.28 709.6C185.856 709.6 153.6 677.344 153.6 637.92V-140.32C153.6-179.744 185.856-212 225.28-212H798.72C838.195-212 870.4-179.744 870.4-140.32V637.92C870.4 677.344 838.144 709.6 798.72 709.6ZM696.32 607.2L742.4 709.6H630.784L593.92 812H430.08L393.216 709.6H281.6L327.68 607.2H696.32Z"  horiz-adv-x="1024" vert-adv-y="1024"  />

      
      <glyph glyph-name="text" unicode="&#xE630;" d="M369.818 255.456H656.538V347.616H369.818V255.456ZM768 760.8H256C199.68 760.8 153.6 714.72 153.6 658.4V-58.4C153.6-114.72 199.68-160.8 256-160.8H768C824.32-160.8 870.4-114.72 870.4-58.4V658.4C870.4 714.72 824.32 760.8 768 760.8ZM768-58.4H256V658.4H768V-58.4ZM655.36 547.347H368.64V457.747H655.36V547.347ZM655.36 145.376H368.64V55.776H655.36V145.376Z"  horiz-adv-x="1024" vert-adv-y="1024"  />

      
      <glyph glyph-name="reply" unicode="&#xE631;" d="M972.8-48.16C972.8-48.16 870.4 450.17 421.12 450.17V648.16L51.2 317.664 421.12-24.915V198.215C664.986 198.215 845.67 176.609 972.8-48.159Z"  horiz-adv-x="1024" vert-adv-y="1024"  />

      
      <glyph glyph-name="reply-all" unicode="&#xE632;" d="M369.92 510.944V648.16L0 317.664 369.92-24.915V117.37L153.6 317.664 369.92 510.944ZM625.92 450.221V648.16L256 317.664 625.92-24.915V198.215C794.522 198.215 896.87 176.609 1024-48.159 1024-48.159 1005.21 450.222 625.92 450.222Z"  horiz-adv-x="1024" vert-adv-y="1024"  />

      
      <glyph glyph-name="export" unicode="&#xE633;" d="M768 3.04H102.4V463.84H235.264C235.264 463.84 270.541 509.715 346.368 566.24H51.2C22.938 566.24 0 543.302 0 515.04V-48.16C0-76.474 22.938-99.36 51.2-99.36H819.2C847.514-99.36 870.4-76.474 870.4-48.16V143.635L768 59.411V3.04ZM684.134 358.88V177.12L1024 443.411 684.134 699.36V539.104C271.36 539.053 271.36 131.04 271.36 131.04 388.198 322.938 460.083 358.88 684.134 358.88Z"  horiz-adv-x="1024" vert-adv-y="1024"  />

      
      <glyph glyph-name="share" unicode="&#xE634;" d="M768 146.4C732.774 146.4 700.518 134.47 674.611 114.554L407.398 274.861C408.678 283.053 409.6 291.45 409.6 300 409.6 308.602 408.678 316.947 407.398 325.139L674.611 485.446C700.518 465.529 732.774 453.6 768 453.6 852.787 453.6 921.6 522.362 921.6 607.2S852.787 760.8 768 760.8 614.4 692.038 614.4 607.2C614.4 598.65 615.322 590.253 616.653 582.061L349.44 421.703C323.533 441.671 291.226 453.601 256 453.601 171.162 453.601 102.4 384.839 102.4 300.001 102.4 215.214 171.162 146.401 256 146.401 291.226 146.401 323.533 158.331 349.44 178.247L616.653 17.94C615.322 9.748 614.4 1.402 614.4-7.199 614.4-91.986 683.213-160.799 768-160.799S921.6-91.986 921.6-7.199 852.787 146.401 768 146.401Z"  horiz-adv-x="1024" vert-adv-y="1024"  />

      
      <glyph glyph-name="thumbsup" unicode="&#xE635;" d="M698.778 435.014C692.02 453.19 880.026 621.126 770.356 757.164 744.654 788.959 657.665 604.793 534.068 521.439 465.921 475.461 307.201 377.567 307.201 323.449V-26.81C307.201-91.885 558.798-160.8 750.03-160.8 820.123-160.8 921.601 278.24 921.601 348.026 921.601 418.016 705.537 416.788 698.779 435.015ZM256 430.15C222.362 430.15 102.4 409.67 102.4 270.304V22.086C102.4-117.28 222.362-132.589 256-132.589S204.8-103.303 204.8-16.928V309.37C204.8 399.892 289.638 430.151 256 430.151Z"  horiz-adv-x="1024" vert-adv-y="1024"  />

      
      <glyph glyph-name="comment" unicode="&#xE636;" d="M819.2 658.4H204.8C148.48 658.4 102.4 612.32 102.4 556V197.6C102.4 141.28 148.48 95.2 204.8 95.2H409.6L614.4-58.4V95.2H819.2C875.52 95.2 921.6 141.28 921.6 197.6V556C921.6 612.32 875.52 658.4 819.2 658.4Z"  horiz-adv-x="1024" vert-adv-y="1024"  />

      
      <glyph glyph-name="search" unicode="&#xE637;" d="M898.304 20.038L704.819 213.523C734.003 261.497 750.797 317.715 750.797 377.977 750.797 552.876 599.194 704.479 424.243 704.479 249.344 704.479 107.52 562.655 107.52 387.756 107.52 212.806 259.072 61.202 434.022 61.202 492.185 61.202 546.662 76.972 593.51 104.364L788.019-90.196C807.117-109.242 837.939-109.242 856.934-90.196L905.216-41.966C924.211-22.92 917.299 1.042 898.304 20.037ZM205.005 387.757C205.005 508.845 303.155 607.047 424.243 607.047 545.382 607.047 653.312 499.117 653.312 377.978S555.162 158.688 434.022 158.688 205.004 266.618 205.004 387.757Z"  horiz-adv-x="1024" vert-adv-y="1024"  />

      
      <glyph glyph-name="book22" unicode="&#xE638;" d="M852.378 548.678L391.68 786.195C328.55 819.424 204.134 755.219 168.397 698.694 152.474 673.401 153.6 655.174 153.6 644.832L159.283 108.512C159.641 97.094 174.029 81.786 186.265 74.208 211.814 58.541 598.937-183.072 609.843-189.933 615.731-193.619 622.745-195.309 629.606-195.309 635.443-195.309 641.331-194.029 646.656-191.367 658.33-185.633 665.6-174.573 665.6-162.439V400.812C665.6 412.537 658.739 423.34 647.578 429.228L228.864 663.007C233.574 672.223 252.211 691.679 286.464 709.599 322.56 728.543 349.542 721.375 355.738 718.969 355.738 718.969 757.658 503.878 769.946 497.478 782.183 491.078 782.439 490.105 782.439 479.2 782.439 468.243 782.439-55.328 782.439-55.328 782.439-82.003 809.473-92.909 829.389-92.909 849.203-92.909 870.4-73.453 870.4-55.328V520.262C870.4 531.987 863.488 542.841 852.378 548.678Z"  horiz-adv-x="1024" vert-adv-y="1024"  />

      
      <glyph glyph-name="newspaper2" unicode="&#xE639;" d="M819.2 760.8H204.8C148.48 760.8 102.4 714.72 102.4 658.4V-58.4C102.4-114.72 148.48-160.8 204.8-160.8H819.2C875.571-160.8 921.6-114.72 921.6-58.4V658.4C921.6 714.72 875.571 760.8 819.2 760.8ZM819.2-58.4H204.8V658.4H819.2V-58.4ZM563.2 197.6H307.2V146.4H563.2V197.6ZM716.8 402.4H512V351.2H716.8V402.4ZM512 453.6H716.8V556H512V453.6ZM460.8 556H307.2V351.2H460.8V556ZM409.6 300H307.2V248.8H409.6V300ZM460.8 248.8H716.8V300H460.8V248.8ZM716.8 95.2H307.2V44H716.8V95.2ZM614.4 146.4H716.8V197.6H614.4V146.4Z"  horiz-adv-x="1024" vert-adv-y="1024"  />

      
      <glyph glyph-name="minus3" unicode="&#xE63A;" d="M819.2 709.6H204.8C148.48 709.6 102.4 663.52 102.4 607.2V-7.2C102.4-63.52 148.48-109.6 204.8-109.6H819.2C875.52-109.6 921.6-63.52 921.6-7.2V607.2C921.6 663.52 875.52 709.6 819.2 709.6ZM768 248.8H256V351.2H768V248.8Z"  horiz-adv-x="1024" vert-adv-y="1024"  />

      
      <glyph glyph-name="plus3" unicode="&#xE63B;" d="M819.2 709.6H204.8C148.48 709.6 102.4 663.52 102.4 607.2V-7.2C102.4-63.52 148.48-109.6 204.8-109.6H819.2C875.52-109.6 921.6-63.52 921.6-7.2V607.2C921.6 663.52 875.52 709.6 819.2 709.6ZM768 248.8H563.2V44H460.8V248.8H256V351.2H460.8V556H563.2V351.2H768V248.8Z"  horiz-adv-x="1024" vert-adv-y="1024"  />

      
      <glyph glyph-name="minus2" unicode="&#xE63C;" d="M512 730.08C274.432 730.08 81.92 537.466 81.92 300 81.92 62.432 274.483-130.08 512-130.08 749.517-130.08 942.08 62.483 942.08 300 942.08 537.517 749.517 730.08 512 730.08ZM770.56 352.326V247.622H253.44V352.326H770.56Z"  horiz-adv-x="1024" vert-adv-y="1024"  />

      
      <glyph glyph-name="plus22" unicode="&#xE63D;" d="M512 730.08C274.432 730.08 81.92 537.466 81.92 300 81.92 62.432 274.483-130.08 512-130.08 749.517-130.08 942.08 62.483 942.08 300 942.08 537.517 749.517 730.08 512 730.08ZM564.326 247.674V41.492H459.673V247.674H253.439V352.327H459.621V558.561H564.325V352.379H770.507V247.675H564.325Z"  horiz-adv-x="1024" vert-adv-y="1024"  />

      
      <glyph glyph-name="cross" unicode="&#xE63E;" d="M512 730.08C274.432 730.08 81.92 537.466 81.92 300 81.92 62.432 274.483-130.08 512-130.08 749.517-130.08 942.08 62.483 942.08 300 942.08 537.517 749.517 730.08 512 730.08ZM600.525 300L757.248 143.277 668.723 54.752 512 211.475 355.277 54.752 266.803 143.277 423.475 300 266.803 456.672 355.277 545.197 512 388.525 668.723 545.197 757.248 456.723 600.525 300Z"  horiz-adv-x="1024" vert-adv-y="1024"  />

      
      <glyph glyph-name="arrow" unicode="&#xE63F;" d="M819.302 494.56H266.342V607.2L51.302 422.88 266.342 238.56V351.2H778.342V136.16H112.742L112.742-7.2H819.302C875.827-7.2 921.702 38.675 921.702 95.2V392.16C921.702 448.736 875.776 494.56 819.302 494.56Z"  horiz-adv-x="1024" vert-adv-y="1024"  />

      
      <glyph glyph-name="bookmarks" unicode="&#xE640;" d="M742.4 812H527.36C499.098 812 486.4 789.062 486.4 760.8H588.8C617.114 760.8 640 737.862 640 709.6V74.72L793.6-109.6V760.8C793.6 789.062 770.714 812 742.4 812ZM486.4 658.4H271.36C243.098 658.4 230.4 635.462 230.4 607.2V-212L384-27.68 537.6-212V607.2C537.6 635.462 514.714 658.4 486.4 658.4Z"  horiz-adv-x="1024" vert-adv-y="1024"  />

      
      <glyph glyph-name="book222" unicode="&#xE641;" d="M399.36 183.725L194.56 265.696V196.371L399.36 114.4V183.725ZM399.36 396.461L194.56 478.381V409.056L399.36 327.136V396.461ZM950.323 751.994C936.294 761.517 918.374 763.463 902.605 757.165L512 600.903 121.395 757.165C105.625 763.463 87.757 761.517 73.677 751.994 59.648 742.471 51.2 726.599 51.2 709.6V54.24C51.2 33.299 63.949 14.509 83.354 6.675L492.084-156.807C492.084-156.807 500.481-159.521 502.017-159.828 505.345-160.442 508.673-160.801 512.001-160.801 515.278-160.801 518.657-160.443 521.934-159.777 523.47-159.47 531.867-156.705 531.867-156.705L940.545 6.725C960.052 14.507 972.801 33.298 972.801 54.239V709.599C972.801 726.597 964.353 742.469 950.324 751.993ZM460.8-56.045L133.12 75.027V648.877L460.8 517.754V-56.044ZM890.88 74.976L563.2-56.096V517.754L890.88 648.877V74.976ZM829.44 265.696L624.589 183.725V114.4L829.44 196.371V265.696ZM829.44 478.381L624.589 396.461V327.136L829.44 409.056V478.381Z"  horiz-adv-x="1024" vert-adv-y="1024"  />

      
      <glyph glyph-name="stop" unicode="&#xE642;" d="M742.4 607.2H281.6C230.707 607.2 204.8 591.533 204.8 540.64V59.36C204.8 8.467 230.707-7.2 281.6-7.2H742.4C793.293-7.2 819.2 8.467 819.2 59.36V540.64C819.2 591.533 793.293 607.2 742.4 607.2Z"  horiz-adv-x="1024" vert-adv-y="1024"  />

      
      <glyph glyph-name="archive2" unicode="&#xE643;" d="M868.762 556C868.762 607.2 817.818 607.2 817.818 607.2H206.183C206.183 607.2 155.239 607.2 155.239 556V504.8H868.762V556ZM715.827 709.6H308.121C308.121 709.6 257.177 709.6 257.177 658.4H766.822C766.822 709.6 715.827 709.6 715.827 709.6ZM970.65 504.8C940.493 535.11 940.493 535.11 940.493 535.11L940.493 453.6H83.456V535.11C83.456 535.11 83.456 535.11 53.299 504.8S1.536 466.349 13.721 402.349C25.753 338.605 84.275-11.091 92.927-58.4 102.501-110.317 155.237-109.6 155.237-109.6H868.76C868.76-109.6 921.496-110.317 931.07-58.4 939.774-11.091 998.244 338.605 1010.328 402.349 1022.462 466.349 1000.856 474.49 970.648 504.8ZM715.827 228.32C715.827 228.32 715.827 177.12 664.832 177.12H359.117C308.173 177.12 308.173 228.32 308.173 228.32V330.72H379.546V248.8H644.404V330.72H715.879L715.879 228.32Z"  horiz-adv-x="1024" vert-adv-y="1024"  />

      
      <glyph glyph-name="align-justify" unicode="&#xE644;" d="M128 726.667V-169.333H853.333V726.667H128ZM768-84H213.333V641.333H768V-84ZM682.667 513.333H298.667V428H682.667V513.333ZM682.667 385.333H298.667V342.666H682.667V385.333ZM682.667 300H298.667V257.333H682.667V300ZM682.667 214.667H298.667V172H682.667V214.667ZM682.667 129.333H298.667V86.666H682.667V129.333Z"  horiz-adv-x="1024" vert-adv-y="1024"  />

      
      <glyph glyph-name="arrow-forward" unicode="&#xE645;" d="M554.667 577.376C543.744 577.376 532.822 573.237 524.502 564.917 516.182 556.554 512.001 545.632 512.001 534.709V425.525C320.001 404.277 170.668 241.674 170.668 44.042V1.375C266.455 147.423 394.668 168.628 512.001 171.572V65.375C512.001 54.495 516.182 43.53 524.502 35.21S543.745 22.709 554.667 22.709 576.512 26.89 584.832 35.21L853.333 300.042 584.832 564.917C576.512 573.237 565.589 577.376 554.667 577.376Z"  horiz-adv-x="1024" vert-adv-y="1024"  />

      
      <glyph glyph-name="lock-open" unicode="&#xE646;" d="M768 641.333C673.877 641.333 597.333 564.746 597.333 470.666V342.666H426.666V385.333H298.666C251.605 385.333 213.333 347.104 213.333 300V1.333C213.333-45.771 251.605-84 298.666-84H725.333C772.394-84 810.666-45.771 810.666 1.333V300C810.666 347.104 772.394 385.333 725.333 385.333H682.666V470.666C682.666 517.77 720.938 555.999 767.999 555.999S853.332 517.77 853.332 470.666V342.666C853.332 319.071 872.447 299.999 895.999 299.999S938.666 319.071 938.666 342.666V470.666C938.666 564.746 862.122 641.333 767.999 641.333ZM512 31.243C481.323 31.243 456.533 55.99 456.533 86.667S481.322 142.176 512 142.176 567.467 117.344 567.467 86.667 542.678 31.243 512 31.243Z"  horiz-adv-x="1024" vert-adv-y="1024"  />

      
      <glyph glyph-name="lock-closed" unicode="&#xE647;" d="M725.333 385.333H682.666V470.666C682.666 564.746 606.122 641.333 511.999 641.333S341.332 564.746 341.332 470.666V385.333H298.665C251.604 385.333 213.332 347.104 213.332 300V1.333C213.332-45.771 251.604-84 298.665-84H725.332C772.393-84 810.665-45.771 810.665 1.333V300C810.665 347.104 772.393 385.333 725.332 385.333ZM512 31.243C481.323 31.243 456.533 55.99 456.533 86.667S481.322 142.176 512 142.176 567.467 117.344 567.467 86.667 542.678 31.243 512 31.243ZM597.333 342.667H426.666V470.667C426.666 517.771 464.938 556 511.999 556S597.332 517.771 597.332 470.667V342.667Z"  horiz-adv-x="1024" vert-adv-y="1024"  />

      
      <glyph glyph-name="group" unicode="&#xE648;" d="M512 214.667C570.923 214.667 624.256 238.56 662.869 277.174 701.44 315.745 725.333 369.078 725.333 428.001S701.44 540.257 662.869 578.828C624.256 617.441 570.922 641.335 512 641.335S399.744 617.442 361.131 578.828C322.56 540.257 298.667 486.924 298.667 428.001S322.56 315.745 361.131 277.174C399.744 238.561 453.078 214.667 512 214.667ZM853.333 172C882.773 172 909.44 183.904 928.768 203.189S960 249.141 960 278.666C960 308.106 948.096 334.773 928.768 354.101 909.44 373.429 882.773 385.333 853.333 385.333 823.85 385.333 797.184 373.429 777.856 354.101 758.571 334.773 746.667 308.106 746.667 278.666 746.667 249.183 758.571 222.517 777.856 203.189S823.851 172 853.333 172ZM853.333 146.827C796.544 146.827 753.834 129.504 728.874 105.526 681.301 144.651 606.079 172.001 511.999 172.001 415.316 172.001 341.546 144.353 294.74 105.27 269.311 129.377 226.132 146.827 170.665 146.827 77.31 146.827 21.332 100.32 21.332 53.728 21.332 30.475 77.311 7.136 170.665 7.136 196.436 7.136 219.561 9.312 239.913 12.811 239.486 8.928 238.206 5.131 238.206 1.291 238.206-41.376 340.862-84.042 511.998-84.042 672.51-84.042 785.79-41.375 785.79 1.291 785.79 4.918 785.321 8.544 784.937 12.171 804.692 9.056 827.39 7.136 853.332 7.136 940.841 7.136 1002.665 30.475 1002.665 53.728 1002.665 100.32 944.084 146.827 853.332 146.827ZM170.667 172C200.107 172 226.774 183.904 246.102 203.232 265.43 222.56 277.334 249.227 277.334 278.667 277.334 308.064 265.43 334.731 246.102 354.102 226.774 373.387 200.107 385.334 170.667 385.334 141.184 385.334 114.518 373.387 95.19 354.102 75.905 334.731 64.001 308.065 64.001 278.667 64.001 249.227 75.905 222.56 95.19 203.232 114.518 183.904 141.185 172 170.667 172Z"  horiz-adv-x="1024" vert-adv-y="1024"  />

      
      <glyph glyph-name="key" unicode="&#xE649;" d="M362.667 342.667C362.667 311.435 369.75 281.91 381.824 255.158L213.333 86.667C213.333 86.667 213.333 57.995 213.333 22.667S251.562-41.333 298.666-41.333H383.999V44H469.332V129.333C469.332 129.333 568.703 129.333 575.999 129.333 693.844 129.333 789.332 224.821 789.332 342.666S693.844 555.999 575.999 555.999 362.666 460.511 362.666 342.666ZM576 257.333C528.896 257.333 490.667 295.562 490.667 342.666 490.667 389.813 528.896 428.085 576 428.085 623.147 428.085 661.333 389.856 661.333 342.666 661.333 295.562 623.146 257.333 576 257.333Z"  horiz-adv-x="1024" vert-adv-y="1024"  />

      
      <glyph glyph-name="list22" unicode="&#xE64A;" d="M224 44H32C14.304 44 0 29.696 0 12V-180C0-197.696 14.304-212 32-212H224C241.696-212 256-197.696 256-180V12C256 29.696 241.696 44 224 44ZM192-116C192-133.696 177.696-148 160-148H96C78.304-148 64-133.696 64-116V-52C64-34.304 78.304-20 96-20H160C177.696-20 192-34.304 192-52V-116ZM992-20H416C398.304-20 384-34.304 384-52V-116C384-133.696 398.304-148 416-148H992C1009.696-148 1024-133.696 1024-116V-52C1024-34.304 1009.696-20 992-20ZM992 364H416C398.304 364 384 349.696 384 332V268C384 250.304 398.304 236 416 236H992C1009.696 236 1024 250.304 1024 268V332C1024 349.696 1009.696 364 992 364ZM224 812H32C14.304 812 0 797.696 0 780V588C0 570.304 14.304 556 32 556H224C241.696 556 256 602.304 256 620V780C256 797.696 241.696 812 224 812ZM192 652C192 634.304 177.696 620 160 620H96C78.304 620 64 634.304 64 652V716C64 733.696 78.304 748 96 748H160C177.696 748 192 733.696 192 716V652ZM224 428H32C14.304 428 0 413.696 0 396V204C0 186.304 14.304 172 32 172H224C241.696 172 256 186.304 256 204V396C256 413.696 241.696 428 224 428ZM192 268C192 250.304 177.696 236 160 236H96C78.304 236 64 250.304 64 268V332C64 349.696 78.304 364 96 364H160C177.696 364 192 349.696 192 332V268ZM992 748H416C398.304 748 384 733.696 384 716V652C384 634.304 398.304 620 416 620H992C1009.696 620 1024 634.304 1024 652V716C1024 733.696 1009.696 748 992 748Z"  horiz-adv-x="1024" vert-adv-y="1024"  />

      
      <glyph glyph-name="out" unicode="&#xE64B;" d="M960 364C924.624 364 896 335.344 896 300V-84H128V300C128 335.344 99.376 364 64 364S0 335.344 0 300V-148C0-183.344 28.624-212 64-212H960C995.376-212 1024-183.344 1024-148V300C1024 335.344 995.376 364 960 364ZM448 172C448 136.656 476.624 108 512 108S576 136.656 576 172V556H768L512 812 256 556H448V172Z"  horiz-adv-x="1024" vert-adv-y="1024"  />

      
      <glyph glyph-name="in" unicode="&#xE64C;" d="M960 364C924.624 364 896 335.344 896 300V-84H128V300C128 335.344 99.376 364 64 364S0 335.344 0 300V-148C0-183.344 28.624-212 64-212H960C995.376-212 1024-183.344 1024-148V300C1024 335.344 995.376 364 960 364ZM576 364V755.818C576 786.844 547.376 812 512 812S448 786.844 448 755.818V364H256L512 108 768 364H576Z"  horiz-adv-x="1024" vert-adv-y="1024"  />

      
      <glyph glyph-name="forbid" unicode="&#xE64D;" d="M512-212C229.25-212 0 17.25 0 300 0 582.782 229.25 812 512 812S1024 582.782 1024 300C1024 17.25 794.75-212 512-212ZM128 300C128 217.376 154.624 141.376 199.062 78.688L733.312 612.968C670.688 657.344 594.624 684 512 684 299.938 684 128 512.062 128 300ZM824.938 521.312L290.688-13C353.312-57.376 429.376-84 512-84 724.062-84 896 87.938 896 300 896 382.624 869.376 458.656 824.938 521.312Z"  horiz-adv-x="1024" vert-adv-y="1024"  />

      
      <glyph glyph-name="compose" unicode="&#xE64E;" d="M960-212H64C28.656-212 0-183.376 0-148V748C0 783.376 28.656 812 64 812H704L576 684H128V-84H896V364L1024 492V-148C1024-183.376 995.344-212 960-212ZM256 44V236L832 812H896L1024 684V620L448 44H256ZM544 268L896 620 832 684 480 332 544 268ZM384 236L320 172V108H384L448 172 384 236Z"  horiz-adv-x="1024" vert-adv-y="1024"  />

      
      <glyph glyph-name="newspaper" unicode="&#xE64F;" d="M256 108H576V44H256ZM256 236H576V172H256ZM256 556H576V300H256ZM960 684H768V812H64C28.624 812 0 783.344 0 748V-148C0-183.376 28.624-212 64-212H960C995.376-212 1024-183.376 1024-148V620C1024 655.344 995.376 684 960 684ZM896-84H128V684H704V44H768V556H896V-84Z"  horiz-adv-x="1024" vert-adv-y="1024"  />

      
      <glyph glyph-name="menu" unicode="&#xE650;" d="M256 172H768V44H256ZM256 364H768V236H256ZM960 812H64C28.624 812 0 783.376 0 748V-148C0-183.376 28.624-212 64-212H960C995.376-212 1024-183.376 1024-148V748C1024 783.376 995.376 812 960 812ZM896-84H128V684H896V-84ZM256 556H768V428H256Z"  horiz-adv-x="1024" vert-adv-y="1024"  />

      
      <glyph glyph-name="list223" unicode="&#xE651;" d="M256 556H384V428H256ZM256 364H384V236H256ZM256 172H384V44H256ZM512 172H768V44H512ZM960 812H64C28.624 812 0 783.376 0 748V-148C0-183.376 28.624-212 64-212H960C995.376-212 1024-183.376 1024-148V748C1024 783.376 995.376 812 960 812ZM896-84H128V684H896V-84ZM512 364H768V236H512ZM512 556H768V428H512Z"  horiz-adv-x="1024" vert-adv-y="1024"  />

      
      <glyph glyph-name="gallery" unicode="&#xE652;" d="M960 812H448C412.624 812 384 783.376 384 748V236C384 200.624 412.624 172 448 172H960C995.376 172 1024 200.624 1024 236V748C1024 783.376 995.376 812 960 812ZM896 300H512V684H896V300ZM512-84H128V300H256V428H64C28.624 428 0 399.376 0 364V-148C0-183.376 28.624-212 64-212H576C611.376-212 640-183.376 640-148V44H512V-84Z"  horiz-adv-x="1024" vert-adv-y="1024"  />

      
      <glyph glyph-name="office" unicode="&#xE653;" d="M0-212H512V812H0V-212ZM320 684H448V556H320V684ZM320 428H448V300H320V428ZM320 172H448V44H320V172ZM64 684H192V556H64V684ZM64 428H192V300H64V428ZM64 172H192V44H64V172ZM576 492H1024V428H576ZM576-212H704V44H896V-212H1024V364H576Z"  horiz-adv-x="1024" vert-adv-y="1024"  />

      
      <glyph glyph-name="books" unicode="&#xE654;" d="M576.234 522.73L818.946 604.162 1022.53-2.622 779.818-84.054ZM0-84H256V620H0V-84ZM64 492H192V428H64V492ZM320-84H576V620H320V-84ZM384 492H512V428H384V492Z"  horiz-adv-x="1024" vert-adv-y="1024"  />

      
      <glyph glyph-name="stack" unicode="&#xE655;" d="M1024 492L512 748 0 492 512 236 1024 492ZM512 663.03L854.058 492 512 320.97 169.942 492 512 663.03ZM921.444 351.278L1024 300 512 44 0 300 102.556 351.278 512 146.556ZM921.444 159.278L1024 108 512-148 0 108 102.556 159.278 512-45.444Z"  horiz-adv-x="1024" vert-adv-y="1024"  />

      
      <glyph glyph-name="history" unicode="&#xE656;" d="M576 748C823.424 748 1024 547.424 1024 300S823.424-148 576-148V-52C670.024-52 758.418-15.386 824.902 51.098 891.386 117.582 928 205.976 928 300 928 394.022 891.386 482.418 824.902 548.902 758.418 615.386 670.024 652 576 652 481.978 652 393.582 615.386 327.098 548.902 275.958 497.764 242.516 433.656 229.792 364H416L192 108-32 364H132.57C163.63 581.102 350.308 748 576 748ZM768 364V236H512V556H640V364Z"  horiz-adv-x="1024" vert-adv-y="1024"  />

      
      <glyph glyph-name="clock3" unicode="&#xE657;" d="M512 812C229.23 812 0 582.77 0 300S229.23-212 512-212 1024 17.23 1024 300 794.77 812 512 812ZM658.744 62.744L448 273.49V556H576V326.51L749.256 153.256 658.744 62.744Z"  horiz-adv-x="1024" vert-adv-y="1024"  />

      
      <glyph glyph-name="alarm" unicode="&#xE658;" d="M512 684C264.576 684 64 483.424 64 236S264.576-212 512-212 960-11.424 960 236 759.424 684 512 684ZM512-124C313.176-124 152 37.178 152 236 152 434.824 313.176 596 512 596 710.822 596 872 434.824 872 236 872 37.178 710.822-124 512-124ZM934.784 524.826C950.826 552.878 960 585.368 960 620 960 726.04 874.04 812 768 812 706.182 812 651.198 782.778 616.08 737.404 747.964 710.168 861.286 632.206 934.784 524.826ZM407.92 737.404C372.804 782.778 317.818 812 256 812 149.96 812 64 726.04 64 620 64 585.368 73.174 552.878 89.216 524.826 162.716 632.206 276.038 710.168 407.92 737.404ZM448 492H512V172H448V492ZM512 236H704V172H512V236Z"  horiz-adv-x="1024" vert-adv-y="1024"  />

      
      <glyph glyph-name="print" unicode="&#xE659;" d="M256 748H768V620H256ZM960 556H64C28.8 556 0 527.2 0 492V172C0 136.8 28.796 108 64 108H256V-148H768V108H960C995.2 108 1024 136.8 1024 172V492C1024 527.2 995.2 556 960 556ZM704-84H320V236H704V-84ZM974.4 460C974.4 434.374 953.626 413.6 928.002 413.6 902.376 413.6 881.6 434.374 881.6 460S902.376 506.4 928.002 506.4C953.628 506.4 974.4 485.626 974.4 460Z"  horiz-adv-x="1024" vert-adv-y="1024"  />

      
      <glyph glyph-name="drawer2" unicode="&#xE65A;" d="M898.496 812L965.74 240.44 890.26 231.56 830.208 742H193.792L133.74 231.56 58.26 240.44 125.502 812ZM256 684H768V620H256ZM256 556H768V492H256ZM256 428H768V364H256ZM256 300H768V236H256ZM992 172H32C14.4 172 4.554 158.34 10.12 141.642L117.88-181.642C123.446-198.34 142.4-212 160-212H864C881.6-212 900.552-198.34 906.12-181.642L1013.882 141.644C1019.448 158.34 1009.6 172 992 172ZM640 44H384V108H640V44Z"  horiz-adv-x="1024" vert-adv-y="1024"  />

      
      <glyph glyph-name="user2" unicode="&#xE65B;" d="M320 620C320 726.039 405.961 812 512 812 618.039 812 704 726.039 704 620 704 513.961 618.039 428 512 428 405.961 428 320 513.961 320 620ZM768.078 364H732.654L533.55-40.244 608 332 512 428 416 332 490.45-40.244 291.348 364H255.924C128 364 128 278.014 128 172V-148H896V172C896 278.014 896 364 768.078 364Z"  horiz-adv-x="1024" vert-adv-y="1024"  />

      
      <glyph glyph-name="wrench" unicode="&#xE65C;" d="M1002.934-5.876L542.382 388.884C563.83 429.182 576 475.166 576 524 576 683.058 447.058 812 288 812 258.906 812 230.828 807.668 204.354 799.646L370.744 633.256C395.634 608.366 395.634 567.636 370.744 542.746L269.254 441.256C244.364 416.366 203.634 416.366 178.744 441.256L12.354 607.646C4.332 581.172 0 553.094 0 524 0 364.942 128.942 236 288 236 336.834 236 382.818 248.17 423.116 269.62L817.876-190.932C840.784-217.656 879.892-219.158 904.78-194.27L1006.272-92.778C1031.16-67.89 1029.658-28.784 1002.934-5.876Z"  horiz-adv-x="1024" vert-adv-y="1024"  />

      
      <glyph glyph-name="bars" unicode="&#xE65D;" d="M0-20H1024V-148H0ZM128 236H256V44H128ZM320 492H448V44H320ZM512 300H640V44H512ZM704 684H832V44H704Z"  horiz-adv-x="1024" vert-adv-y="1024"  />

      
      <glyph glyph-name="menu2" unicode="&#xE65E;" d="M0 428H704V300H0V428ZM0 620H704V492H0V620ZM0 236H704V108H0V236ZM0 44H704V-84H0V44ZM768 236L896 44 1024 236H768ZM1024 300L896 492 768 300H1024Z"  horiz-adv-x="1024" vert-adv-y="1024"  />

      
      <glyph glyph-name="smiley" unicode="&#xE65F;" d="M512-212C794.77-212 1024 17.23 1024 300S794.77 812 512 812 0 582.77 0 300 229.23-212 512-212ZM512 716C741.75 716 928 529.75 928 300S741.75-116 512-116 96 70.25 96 300 282.25 716 512 716ZM256 492C256 527.346 284.654 556 320 556S384 527.346 384 492C384 456.654 355.346 428 320 428 284.654 428 256 456.654 256 492ZM640 492C640 527.346 668.654 556 704 556S768 527.346 768 492C768 456.654 739.346 428 704 428 668.654 428 640 456.654 640 492ZM704.098 184.74L786.426 135.344C730.464 42.274 628.51-20 512-20S293.536 42.274 237.574 135.344L319.902 184.74C359.076 119.592 430.444 76 512 76S664.924 119.592 704.098 184.74Z"  horiz-adv-x="1024" vert-adv-y="1024"  />

      
      <glyph glyph-name="smiley2" unicode="&#xE660;" d="M512 812C229.23 812 0 582.77 0 300S229.23-212 512-212 1024 17.23 1024 300 794.77 812 512 812ZM704 556C739.346 556 768 527.346 768 492S739.346 428 704 428 640 456.654 640 492 668.654 556 704 556ZM320 556C355.346 556 384 527.346 384 492S355.346 428 320 428 256 456.654 256 492 284.654 556 320 556ZM512-20C395.49-20 293.536 42.274 237.574 135.344L319.902 184.74C359.076 119.592 430.444 76 512 76S664.924 119.592 704.098 184.74L786.426 135.344C730.464 42.274 628.51-20 512-20Z"  horiz-adv-x="1024" vert-adv-y="1024"  />

      
      <glyph glyph-name="sad2" unicode="&#xE661;" d="M512-212C794.77-212 1024 17.23 1024 300S794.77 812 512 812 0 582.77 0 300 229.23-212 512-212ZM512 716C741.75 716 928 529.75 928 300S741.75-116 512-116 96 70.25 96 300 282.25 716 512 716ZM256 492C256 527.346 284.654 556 320 556S384 527.346 384 492C384 456.654 355.346 428 320 428 284.654 428 256 456.654 256 492ZM640 492C640 527.346 668.654 556 704 556S768 527.346 768 492C768 456.654 739.346 428 704 428 668.654 428 640 456.654 640 492ZM319.902 31.26L237.574 80.656C293.536 173.726 395.49 236 512 236 628.508 236 730.462 173.726 786.426 80.656L704.098 31.26C664.924 96.408 593.556 140 512 140 430.442 140 359.076 96.408 319.902 31.26Z"  horiz-adv-x="1024" vert-adv-y="1024"  />

      
      <glyph glyph-name="sad" unicode="&#xE662;" d="M512 812C229.23 812 0 582.77 0 300S229.23-212 512-212 1024 17.23 1024 300 794.77 812 512 812ZM704 556C739.346 556 768 527.346 768 492S739.346 428 704 428 640 456.654 640 492 668.654 556 704 556ZM320 556C355.346 556 384 527.346 384 492S355.346 428 320 428 256 456.654 256 492 284.654 556 320 556ZM704.098 31.26C664.924 96.408 593.554 140 512 140 430.444 140 359.076 96.408 319.902 31.26L237.574 80.656C293.534 173.726 395.49 236 512 236 628.508 236 730.464 173.726 786.426 80.656L704.098 31.26Z"  horiz-adv-x="1024" vert-adv-y="1024"  />

      
      <glyph glyph-name="wink" unicode="&#xE663;" d="M512-212C794.77-212 1024 17.23 1024 300S794.77 812 512 812 0 582.77 0 300 229.23-212 512-212ZM512 716C741.75 716 928 529.75 928 300S741.75-116 512-116 96 70.25 96 300 282.25 716 512 716ZM542.74 100.972C682.988 128.678 791.85 192.514 831.194 277.566 809.54 109.61 669.676-20 500.344-20 381.102-20 276.486 44.282 217.452 140.948 287.862 85.89 411.986 75.14 542.74 100.972ZM640 460C640 513.019 668.654 556 704 556S768 513.019 768 460C768 406.981 739.346 364 704 364 668.654 364 640 406.981 640 460ZM352 440.5C310.204 440.5 274.666 424.844 261.484 403 257.944 408.866 256 435.174 256 441.75 256 472.816 298.98 498 352 498 405.02 498 448 472.816 448 441.75 448 435.174 446.056 408.866 442.516 403 429.334 424.844 393.796 440.5 352 440.5Z"  horiz-adv-x="1024" vert-adv-y="1024"  />

      
      <glyph glyph-name="confused2" unicode="&#xE664;" d="M512-212C794.77-212 1024 17.23 1024 300S794.77 812 512 812 0 582.77 0 300 229.23-212 512-212ZM512 716C741.75 716 928 529.75 928 300S741.75-116 512-116 96 70.25 96 300 282.25 716 512 716ZM256 492C256 527.346 284.654 556 320 556S384 527.346 384 492C384 456.654 355.346 428 320 428 284.654 428 256 456.654 256 492ZM640 492C640 527.346 668.654 556 704 556S768 527.346 768 492C768 456.654 739.346 428 704 428 668.654 428 640 456.654 640 492ZM726.106 172H790.97C800.216 99.494 758.518 27.47 687.012 1.44 604.108-28.736 512.112 14.156 481.932 97.056 463.824 146.8 408.626 172.538 358.884 154.428 313.322 137.84 287.928 90.13 297.896 44.004H233.036C223.794 116.512 265.486 188.532 336.992 214.564 419.896 244.742 511.894 201.848 542.074 118.95 560.178 69.202 615.38 43.468 665.118 61.578 710.68 78.162 736.074 125.876 726.106 172Z"  horiz-adv-x="1024" vert-adv-y="1024"  />

      
      <glyph glyph-name="confused" unicode="&#xE665;" d="M512 812C229.23 812 0 582.77 0 300S229.226-212 512-212C794.77-212 1024 17.23 1024 300S794.77 812 512 812ZM704 556C739.346 556 768 527.346 768 492S739.346 428 704 428 640 456.654 640 492C640 527.346 668.654 556 704 556ZM320 556C355.346 556 384 527.346 384 492S355.346 428 320 428 256 456.654 256 492C256 527.346 284.654 556 320 556ZM687.01 1.44C604.108-28.74 512.11 14.152 481.93 97.054 463.822 146.796 408.624 172.532 358.882 154.426 313.32 137.838 287.924 90.13 297.894 44.002H233.034C223.79 116.51 265.484 188.534 336.99 214.562 419.894 244.742 511.892 201.85 542.072 118.948 560.18 69.206 615.378 43.472 665.118 61.578 710.68 78.162 736.076 125.872 726.106 172H790.97C800.21 99.494 758.516 27.468 687.01 1.44Z"  horiz-adv-x="1024" vert-adv-y="1024"  />

      
      <glyph glyph-name="indent-increase" unicode="&#xE666;" d="M0 748H1024V620H0ZM384 556H1024V428H384ZM384 364H1024V236H384ZM384 172H1024V44H384ZM0-20H1024V-148H0ZM0 108V492L256 300Z"  horiz-adv-x="1024" vert-adv-y="1024"  />

      
      <glyph glyph-name="indent-decrease" unicode="&#xE667;" d="M0 748H1024V620H0ZM384 556H1024V428H384ZM384 364H1024V236H384ZM384 172H1024V44H384ZM0-20H1024V-148H0ZM256 492V108L0 300Z"  horiz-adv-x="1024" vert-adv-y="1024"  />

      
      <glyph glyph-name="libreoffice" unicode="&#xE668;" d="M534.626 789.372C522.182 801.816 497.6 812 480 812H96C78.4 812 64 797.6 64 780V-180C64-197.6 78.4-212 96-212H864C881.6-212 896-197.6 896-180V396C896 413.6 885.818 438.182 873.374 450.626L534.626 789.372ZM832-148H128V748H479.158C482.074 747.52 487.566 745.246 489.968 743.522L827.524 405.968C829.246 403.566 831.52 398.074 832 395.158V-148ZM864 812H672C654.4 812 650.182 801.818 662.626 789.374L873.372 578.628C885.818 566.182 896 570.4 896 588V780C896 797.6 881.6 812 864 812Z"  horiz-adv-x="1024" vert-adv-y="1024"  />

      
      <glyph glyph-name="file-pdf" unicode="&#xE669;" d="M842.012 222.52C828.364 235.966 798.098 243.086 752.04 243.692 720.862 244.036 683.338 241.29 643.87 235.764 626.196 245.962 607.978 257.058 593.682 270.422 555.22 306.338 523.114 356.194 503.106 411.016 504.41 416.136 505.52 420.636 506.554 425.228 506.554 425.228 528.22 548.288 522.484 589.894 521.694 595.6 521.21 597.256 519.676 601.69L517.794 606.524C511.898 620.116 500.346 634.518 482.228 633.732L471.604 634.07 471.312 634.076C451.112 634.076 434.648 623.744 430.326 608.302 417.188 559.868 430.744 487.41 455.308 393.564L449.02 378.278C431.432 335.402 409.39 292.218 389.942 254.12L387.414 249.168C366.954 209.13 348.39 175.142 331.56 146.346L314.184 137.158C312.92 136.49 283.14 120.74 276.156 116.514 216.9 81.132 177.634 40.974 171.12 9.098 169.048-1.072 170.59-14.088 181.134-20.116L197.94-28.574C205.23-32.226 212.918-34.076 220.794-34.076 262.998-34.076 311.994 18.496 379.49 136.29 457.42 161.658 546.144 182.746 623.904 194.38 683.162 161.012 756.046 137.834 802.046 137.834 810.214 137.834 817.258 138.612 822.978 140.13 831.8 142.466 839.236 147.496 843.77 154.322 852.696 167.754 854.504 186.254 852.082 205.198 851.36 210.822 846.87 217.774 842.012 222.52ZM211.646-2.048C219.342 18.994 249.806 60.596 294.85 97.508 297.682 99.804 304.658 106.34 311.044 112.41 263.942 37.286 232.398 7.344 211.646-2.048ZM478.434 612.314C492 612.314 499.718 578.12 500.358 546.06 500.998 514 493.5 491.5 484.2 474.852 476.498 499.5 472.774 538.352 472.774 563.756 472.774 563.756 472.208 612.314 478.434 612.314ZM398.852 174.506C408.302 191.422 418.134 209.262 428.182 228.184 452.674 274.5 468.14 310.74 479.66 340.53 502.57 298.846 531.104 263.41 564.646 235.018 568.83 231.476 573.264 227.916 577.92 224.368 509.71 210.872 450.756 194.458 398.852 174.506ZM828.904 178.348C824.75 175.75 812.85 174.248 805.196 174.248 780.49 174.248 749.924 185.542 707.07 203.914 723.538 205.132 738.632 205.752 752.17 205.752 776.952 205.752 784.29 205.86 808.52 199.68S833.058 180.946 828.904 178.348ZM903.432 612.57L760.568 755.432C729.456 786.544 668 812 624 812H144C100 812 64 776 64 732V-132C64-176 100-212 144-212H880C924-212 960-176 960-132V476C960 520 934.544 581.458 903.432 612.57ZM858.178 567.314C861.308 564.184 864.428 560.34 867.458 556H704V719.456C708.34 716.426 712.184 713.306 715.314 710.176L858.178 567.314ZM896-132C896-140.672 888.672-148 880-148H144C135.328-148 128-140.672 128-132V732C128 740.672 135.328 748 144 748H624C628.832 748 634.254 747.39 640 746.296V492H894.296C895.39 486.254 896 480.834 896 476V-132Z"  horiz-adv-x="1024" vert-adv-y="1024"  />

      
      <glyph glyph-name="file-word" unicode="&#xE66A;" d="M639.778 336.108H683.99L632.978 109.93 566.652 427.94H460.102L382.988 109.93 325.172 427.94H213.778L326.87-83.942H435.708L512.002 218.766 580.258-83.942H680.594L810.224 427.94H639.778ZM903.432 612.57L760.568 755.432C729.456 786.544 668 812 624 812H144C100 812 64 776 64 732V-132C64-176 100-212 144-212H880C924-212 960-176 960-132V476C960 520 934.544 581.458 903.432 612.57ZM858.178 567.314C861.308 564.184 864.428 560.34 867.458 556H704V719.456C708.34 716.426 712.184 713.306 715.314 710.176L858.178 567.314ZM896-132C896-140.672 888.672-148 880-148H144C135.328-148 128-140.672 128-132V732C128 740.672 135.328 748 144 748H624C628.832 748 634.254 747.39 640 746.296V492H894.296C895.39 486.254 896 480.834 896 476V-132Z"  horiz-adv-x="1024" vert-adv-y="1024"  />

      
      <glyph glyph-name="file-excel" unicode="&#xE66B;" d="M743.028 428H607.734L512.002 286.968 416.262 428H280.974L443.136 185.536 260.162-84H522.402V7.576H461.846L512.002 82.57 623.398-84H763.84L580.864 185.536ZM903.432 612.57L760.568 755.432C729.456 786.544 668 812 624 812H144C100 812 64 776 64 732V-132C64-176 100-212 144-212H880C924-212 960-176 960-132V476C960 520 934.544 581.458 903.432 612.57ZM858.178 567.314C861.308 564.184 864.428 560.34 867.458 556H704V719.456C708.34 716.426 712.184 713.306 715.314 710.176L858.178 567.314ZM896-132C896-140.672 888.672-148 880-148H144C135.328-148 128-140.672 128-132V732C128 740.672 135.328 748 144 748H624C628.832 748 634.254 747.39 640 746.296V492H894.296C895.39 486.254 896 480.834 896 476V-132Z"  horiz-adv-x="1024" vert-adv-y="1024"  />

      
      <glyph glyph-name="file-zip" unicode="&#xE66C;" d="M416 684H512V620H416ZM320 620H416V556H320ZM416 556H512V492H416ZM320 492H416V428H320ZM416 428H512V364H416ZM320 364H416V300H320ZM416 300V236H320V12C320-5.674 334.326-20 352-20H480C497.674-20 512-5.674 512 12V300H416ZM480 44H352V108H480V44ZM903.432 612.57L760.568 755.432C729.456 786.544 668 812 624 812H144C100 812 64 776 64 732V-132C64-176 100-212 144-212H880C924-212 960-176 960-132V476C960 520 934.544 581.458 903.432 612.57ZM858.178 567.314C861.308 564.184 864.428 560.34 867.458 556H704V719.456C708.34 716.426 712.184 713.306 715.314 710.176L858.178 567.314ZM896-132C896-140.672 888.672-148 880-148H144C135.328-148 128-140.672 128-132V732C128 740.672 135.328 748 144 748H624C628.832 748 634.254 747.39 640 746.296V492H894.296C895.39 486.254 896 480.834 896 476V-132Z"  horiz-adv-x="1024" vert-adv-y="1024"  />

      
      <glyph glyph-name="file-powerpoint2" unicode="&#xE66D;" d="M192 300H384V236H192V300ZM192 172H384V108H192V172ZM192 44H384V-20H192V44ZM903.432 612.57L760.568 755.432C729.456 786.544 668 812 624 812H144C100 812 64 776 64 732V-132C64-176 100-212 144-212H880C924-212 960-176 960-132V476C960 520 934.544 581.458 903.432 612.57ZM858.178 567.314C861.308 564.184 864.428 560.34 867.458 556H704V719.456C708.34 716.426 712.184 713.306 715.314 710.176L858.178 567.314ZM896-132C896-140.672 888.672-148 880-148H144C135.328-148 128-140.672 128-132V732C128 740.672 135.328 748 144 748H624C628.832 748 634.254 747.39 640 746.296V492H894.296C895.39 486.254 896 480.834 896 476V-132ZM576 108H764.792C749.966 34.968 685.406-20 608-20 519.634-20 448 51.634 448 140 448 217.406 502.97 281.966 576 296.792V108ZM672 364C760.366 364 832 292.366 832 204 832 193.042 830.892 182.34 828.792 172H640V360.792C650.34 362.892 661.042 364 672 364Z"  horiz-adv-x="1024" vert-adv-y="1024"  />

      
      <glyph glyph-name="file-xml" unicode="&#xE66E;" d="M448 236L384 300 192 108 384-84 448-20 320 108ZM576-20L640-84 832 108 640 300 576 236 704 108ZM903.432 612.57L760.568 755.432C729.456 786.544 668 812 624 812H144C100 812 64 776 64 732V-132C64-176 100-212 144-212H880C924-212 960-176 960-132V476C960 520 934.544 581.458 903.432 612.57ZM858.178 567.314C861.308 564.184 864.428 560.34 867.458 556H704V719.456C708.34 716.426 712.184 713.306 715.314 710.176L858.178 567.314ZM896-132C896-140.672 888.672-148 880-148H144C135.328-148 128-140.672 128-132V732C128 740.672 135.328 748 144 748H624C628.832 748 634.254 747.39 640 746.296V492H894.296C895.39 486.254 896 480.834 896 476V-132Z"  horiz-adv-x="1024" vert-adv-y="1024"  />

      
      <glyph glyph-name="times" unicode="&#xE66F;" d="M62.857 56.571Q62.857 79.428 78.857 95.428L246.857 263.428 78.857 431.428Q62.857 447.428 62.857 470.285T78.857 509.142L156.571 586.856Q172.571 602.856 195.428 602.856T234.285 586.856L402.285 418.856 570.285 586.856Q586.285 602.856 609.142 602.856T647.999 586.856L725.713 509.142Q741.713 493.142 741.713 470.285T725.713 431.428L557.713 263.428 725.713 95.428Q741.713 79.428 741.713 56.571T725.713 17.714L647.999-60Q631.999-76 609.142-76T570.285-60L402.285 108 234.285-60Q218.285-76 195.428-76T156.571-60L78.857 17.714Q62.857 33.714 62.857 56.571Z"  horiz-adv-x="1024" vert-adv-y="1024"  />

      
      <glyph glyph-name="column-selection" unicode="&#xE670;" d="M0-47.429V62.285Q0 69.714 5.429 75.142T18.286 80.571H128Q135.429 80.571 140.857 75.142T146.286 62.285V-47.429Q146.286-54.858 140.857-60.286T128-65.715H18.286Q10.857-65.715 5.429-60.286T0-47.429ZM0 172V281.714Q0 289.143 5.429 294.571T18.286 300H128Q135.429 300 140.857 294.571T146.286 281.714V172Q146.286 164.571 140.857 159.143T128 153.714H18.286Q10.857 153.714 5.429 159.143T0 172ZM0 391.429V501.143Q0 508.572 5.429 514T18.286 519.429H128Q135.429 519.429 140.857 514T146.286 501.143V391.429Q146.286 384 140.857 378.572T128 373.143H18.286Q10.857 373.143 5.429 378.572T0 391.429ZM0 610.857V720.571Q0 728 5.429 733.428T18.286 738.857H128Q135.429 738.857 140.857 733.428T146.286 720.571V610.857Q146.286 603.428 140.857 598T128 592.571H18.286Q10.857 592.571 5.429 598T0 610.857ZM219.429-47.429V62.285Q219.429 69.714 224.858 75.142T237.715 80.571H1005.715Q1013.144 80.571 1018.572 75.142T1024.001 62.285V-47.429Q1024.001-54.858 1018.572-60.286T1005.715-65.715H237.715Q230.286-65.715 224.858-60.286T219.429-47.429ZM219.429 172V281.714Q219.429 289.143 224.858 294.571T237.715 300H1005.715Q1013.144 300 1018.572 294.571T1024.001 281.714V172Q1024.001 164.571 1018.572 159.143T1005.715 153.714H237.715Q230.286 153.714 224.858 159.143T219.429 172ZM219.429 391.429V501.143Q219.429 508.572 224.858 514T237.715 519.429H1005.715Q1013.144 519.429 1018.572 514T1024.001 501.143V391.429Q1024.001 384 1018.572 378.572T1005.715 373.143H237.715Q230.286 373.143 224.858 378.572T219.429 391.429ZM219.429 610.857V720.571Q219.429 728 224.858 733.428T237.715 738.857H1005.715Q1013.144 738.857 1018.572 733.428T1024.001 720.571V610.857Q1024.001 603.428 1018.572 598T1005.715 592.571H237.715Q230.286 592.571 224.858 598T219.429 610.857Z"  horiz-adv-x="1024" vert-adv-y="1024"  />

      
      <glyph glyph-name="align-center" unicode="&#xE671;" d="M0-29.143V44Q0 58.857 10.857 69.714T36.571 80.571H987.428Q1002.285 80.571 1013.142 69.714T1023.999 44V-29.143Q1023.999-44 1013.142-54.857T987.428-65.714H36.571Q21.714-65.714 10.857-54.857T0-29.143ZM73.143 409.714V482.857Q73.143 497.714 84 508.571T109.714 519.428H914.285Q929.142 519.428 939.999 508.571T950.856 482.857V409.714Q950.856 394.857 939.999 384T914.285 373.143H109.714Q94.857 373.143 84 384T73.143 409.714ZM219.429 190.286V263.429Q219.429 278.286 230.286 289.143T256 300H768Q782.857 300 793.714 289.143T804.571 263.429V190.286Q804.571 175.429 793.714 164.572T768 153.715H256Q241.143 153.715 230.286 164.572T219.429 190.286ZM292.571 629.143V702.286Q292.571 717.143 303.428 728T329.142 738.857H694.856Q709.713 738.857 720.57 728T731.427 702.286V629.143Q731.427 614.286 720.57 603.429T694.856 592.572H329.142Q314.285 592.572 303.428 603.429T292.571 629.143Z"  horiz-adv-x="1024" vert-adv-y="1024"  />

      
      <glyph glyph-name="check" unicode="&#xE672;" d="M69.143 281.714Q69.143 304.571 85.143 320.571L162.857 398.285Q178.857 414.285 201.714 414.285T240.571 398.285L408.571 229.714 783.428 605.143Q799.428 621.143 822.285 621.143T861.142 605.143L938.856 527.429Q954.856 511.429 954.856 488.572T938.856 449.715L447.427-41.714Q431.427-57.714 408.57-57.714T369.713-41.714L85.142 242.857Q69.142 258.857 69.142 281.714Z"  horiz-adv-x="1024" vert-adv-y="1024"  />

      
      <glyph glyph-name="flash" unicode="&#xE673;" d="M0.571 249.143L115.428 720.572Q117.714 728.572 124.571 733.715T140.571 738.858H328Q338.857 738.858 346.286 731.715T353.715 714.858Q353.715 710.287 350.858 704.572L253.144 440.001 479.43 496.001Q484.001 497.144 486.287 497.144 497.144 497.144 505.716 488.573 516.002 477.144 509.716 463.43L201.145-197.713Q193.716-211.999 177.145-211.999 174.859-211.999 169.145-210.856 159.431-207.999 154.574-199.999T152.003-182.856L264.574 278.858 32.574 221.144Q30.288 220.573 25.717 220.573 15.431 220.573 8.003 226.859-2.283 235.43 0.574 249.145Z"  horiz-adv-x="1024" vert-adv-y="1024"  />

      
      <glyph glyph-name="photo" unicode="&#xE674;" d="M0-47.429V647.428Q0 685.142 26.857 711.999T91.428 738.856H1005.714Q1043.428 738.856 1070.285 711.999T1097.142 647.428V-47.429Q1097.142-85.143 1070.285-112T1005.714-138.857H91.428Q53.714-138.857 26.857-112T0-47.429ZM73.143-47.429Q73.143-54.858 78.572-60.286T91.429-65.715H1005.715Q1013.144-65.715 1018.572-60.286T1024.001-47.429V647.428Q1024.001 654.857 1018.572 660.285T1005.715 665.714H91.429Q84 665.714 78.572 660.285T73.143 647.428V-47.429ZM146.286 7.429V117.143L329.143 300 420.572 208.571 713.143 501.142 950.857 263.428V7.428H146.286ZM146.286 482.857Q146.286 528.571 178.286 560.571T256 592.571 333.714 560.571 365.714 482.857 333.714 405.143 256 373.143 178.286 405.143 146.286 482.857Z"  horiz-adv-x="1024" vert-adv-y="1024"  />

      
      <glyph glyph-name="cut" unicode="&#xE675;" d="M548.571 300Q563.428 300 574.285 289.143T585.142 263.429 574.285 237.715 548.571 226.858 522.857 237.715 512 263.429 522.857 289.143 548.571 300ZM720 263.429L1009.714 36Q1025.714 24.571 1024 4 1021.143-16 1004-25.143L930.857-61.714Q923.428-65.714 914.286-65.714 904.572-65.714 896.572-61.143L502.286 160 439.429 122.286Q434.858 120 432.572 119.429 440.572 91.429 438.286 64 434.286 20 406.286-20.286T330.857-90.857Q255.428-138.857 172.571-138.857 94.857-138.857 45.714-94.286-5.715-46.286 0.571 24 4.571 67.429 32.571 108T107.428 178.857Q182.857 226.857 266.285 226.857 313.714 226.857 352.571 209.143 357.714 216.572 365.142 221.714L434.856 263.428 365.142 305.142Q357.713 310.285 352.571 317.713 313.714 299.999 266.285 299.999 182.856 299.999 107.428 347.999 60.571 378.285 32.571 418.856T0.571 502.856Q-2.286 536.57 9.428 567.427T45.714 620.57Q94.285 665.713 172.571 665.713 255.428 665.713 330.857 617.713 378.286 587.999 406.286 547.427T438.286 462.856Q440.572 435.427 432.572 407.427 434.858 406.856 439.429 404.57L502.286 366.856 896.572 587.999Q904.572 592.57 914.286 592.57 923.429 592.57 930.857 588.57L1004 551.999Q1021.143 542.856 1024 522.856 1025.714 502.285 1009.714 490.856ZM330.857 412Q357.143 436 342.857 473.714T282.286 540.571Q229.715 574.285 172.572 574.285 130.286 574.285 108.001 553.714 81.715 529.714 96.001 492T156.572 425.143Q209.143 391.429 266.286 391.429 308.572 391.429 330.857 412ZM282.286-13.714Q328.572 15.429 342.857 53.143T330.857 114.857Q308.571 135.428 266.286 135.428 209.143 135.428 156.572 101.714 110.286 72.571 96.001 34.857T108.001-26.857Q130.287-47.428 172.572-47.428 229.715-47.428 282.286-13.714ZM384 336.571L438.857 303.428V309.714Q438.857 330.285 457.714 341.714L465.714 346.285 420.571 373.142 405.714 358.285Q404 356.571 400 351.999T393.143 345.142Q392 343.999 390.857 343.142T389.143 341.713ZM512 208.571L566.857 190.285 987.428 519.428 914.285 555.999 475.428 309.713V245.142L383.999 190.285 389.142 185.714Q390.285 184.571 393.142 182.285 395.428 179.999 399.428 175.428T405.714 168.571L420.571 153.714ZM914.286-29.143L987.429 7.428 690.286 240.571 589.143 161.714Q588 160 581.714 157.714Z"  horiz-adv-x="1024" vert-adv-y="1024"  />

      
      <glyph glyph-name="copy" unicode="&#xE676;" d="M969.143 592.571Q992 592.571 1008 576.571T1024 537.714V-157.143Q1024-180 1008-196T969.143-212H420.572Q397.715-212 381.715-196T365.715-157.143V7.428H54.858Q32.001 7.428 16.001 23.428T0.001 62.285V446.285Q0.001 469.142 11.43 496.571T38.859 540L272.002 773.143Q288.002 789.143 315.431 800.572T365.717 812.001H603.431Q626.288 812.001 642.288 796.001T658.288 757.144V569.715Q697.145 592.572 731.431 592.572H969.145ZM658.286 470.857L487.429 300H658.286V470.857ZM292.571 690.286L121.714 519.429H292.571V690.286ZM404.571 320.571L585.142 501.142V738.856H365.713V501.142Q365.713 478.285 349.713 462.285T310.856 446.285H73.142V80.571H365.713V226.857Q365.713 249.714 377.142 277.143T404.571 320.572ZM950.857-138.857V519.429H731.428V281.715Q731.428 258.858 715.428 242.858T676.571 226.858H438.857V-138.856H950.857Z"  horiz-adv-x="1024" vert-adv-y="1024"  />

      
      <glyph glyph-name="search4" unicode="&#xE677;" d="M658.286 336.571Q658.286 442.285 583.143 517.428T402.286 592.571 221.429 517.428 146.286 336.571 221.429 155.714 402.286 80.571 583.143 155.714 658.286 336.571ZM950.857-138.857Q950.857-168.571 929.143-190.286T877.714-212Q846.857-212 826.285-190.286L630.285 5.143Q527.999-65.714 402.285-65.714 320.571-65.714 245.999-34T117.428 51.714 31.714 180.285 0 336.571 31.714 492.857 117.428 621.428 245.999 707.142 402.285 738.856 558.571 707.142 687.142 621.428 772.856 492.857 804.57 336.571Q804.57 210.857 733.713 108.571L929.713-87.429Q950.856-108.572 950.856-138.858Z"  horiz-adv-x="1024" vert-adv-y="1024"  />

      
      <glyph glyph-name="envelope2" unicode="&#xE678;" d="M950.857-47.429V391.428Q932.571 370.857 911.428 353.714 758.285 236 667.999 160.571 638.856 136 620.57 122.285T571.141 94.571 512.57 80.571H511.427Q483.998 80.571 452.856 94.571T403.427 122.285 355.998 160.571Q265.712 236 112.569 353.714 91.426 370.857 73.14 391.428V-47.429Q73.14-54.858 78.569-60.286T91.426-65.715H932.569Q939.998-65.715 945.426-60.286T950.855-47.429ZM950.857 553.143V559.429 567.143T950.571 574.572 948.857 581.715 945.714 586.858 940.571 591.144 932.571 592.573H91.428Q83.999 592.573 78.571 587.144T73.142 574.287Q73.142 478.287 157.142 412.001 267.428 325.144 386.285 230.858 389.714 228.001 406.285 214.001T432.571 192.572 458 174.572 486.857 158.858 511.428 153.715H511.999 512.57Q523.999 153.715 537.141 158.858T565.998 174.572 591.427 192.572 617.713 214.001 637.713 230.858Q756.57 325.144 866.856 412.001 897.713 436.572 924.285 478.001T950.856 553.144ZM1024 574.286V-47.428Q1024-85.142 997.143-111.999T932.572-138.856H91.429Q53.715-138.856 26.858-111.999T0.001-47.428V574.286Q0.001 612 26.858 638.857T91.429 665.714H932.572Q970.286 665.714 997.143 638.857T1024 574.286Z"  horiz-adv-x="1024" vert-adv-y="1024"  />

      
      <glyph glyph-name="heart" unicode="&#xE679;" d="M512-138.857Q497.143-138.857 486.857-128.571L130.286 215.429Q124.572 220 114.572 230.286T82.858 267.715 44.001 323.429 13.43 392.572 0.001 471.429Q0.001 597.143 72.572 668T273.143 738.857Q308.572 738.857 345.429 726.571T414 693.428 468.571 654.285 512 615.428Q532.571 635.999 555.429 654.285T610 693.428 678.571 726.571 750.857 738.857Q878.857 738.857 951.428 668T1023.999 471.429Q1023.999 345.143 893.142 214.286L537.142-128.571Q526.856-138.857 511.999-138.857Z"  horiz-adv-x="1024" vert-adv-y="1024"  />

      
      </font>
</defs>
</svg>
